<?xml version="1.0" encoding="utf-8"?>
<!-- Generator: Adobe Illustrator 22.0.1, SVG Export Plug-In . SVG Version: 6.00 Build 0)  -->
<svg version="1.1" id="Layer_1" xmlns="http://www.w3.org/2000/svg" xmlns:xlink="http://www.w3.org/1999/xlink" x="0px" y="0px"
	 viewBox="0 0 1440 1024" style="enable-background:new 0 0 1440 1024;" xml:space="preserve">
<style type="text/css">
	.st0{fill:#E8ED8C;fill-opacity:0.2;}
	.st1{fill:#DBDB52;fill-opacity:0.2;}
</style>
<path class="st0" d="M1467,208.2V1024H-28V289.8c20.3-8.7,45.4-6.6,65.5,3.6c35.9,18.3,52.6,59.8,61,97.2
	c49.6-5.7,98.4,38,97.2,88.3c39.8-5.7,80.4,6.3,110.3,32.9c30.5-26.9,73.9-35.3,112.1-21.8c1.2-41.9,25.1-81.4,61.6-102
	c-16.4-31.4-15.5-71.2,4.5-100.8c18.8-27.8,51.7-44,85.2-43.1c4.2-37.1,33.2-70.3,70.3-76.9c36.5-6.3,74.5,12.9,91.8,45.2
	c24.5-15.3,58.3-15,81.9,3c21.2,16.2,31.4,44,27.2,70c29.6-9.6,63.4-3.3,86.4,18.2c23.6,22.1,32.3,57.7,23,88.6
	c27.5-1.8,57.4-2.4,81.6,12.6c18.8,11.7,32.9,32.3,31.4,54.7c52-9.3,106.4,1.8,151,31.1c31.1-30.2,74.4-45.2,117.2-41.3
	c-13.8-26.3-14.7-58.6-1.2-85.3c13.4-26.3,39.2-44,67.9-49.1c-8.7-26.9-3-57.7,15.5-79.3C1427.2,219.5,1446.7,210.3,1467,208.2z"/>
<path class="st1" d="M-28,358.1V1024h1495V439.8c-20.3-8.7-45.4-6.6-65.5,3.6c-35.9,18.2-52.6,59.8-61,97.2
	c-49.6-5.7-98.4,38-97.2,88.2c-39.8-5.7-80.4,6.3-110.3,32.9c-30.5-26.9-73.9-35.3-112.1-21.8c-1.2-41.9-25.1-81.3-61.6-102
	c16.4-31.4,15.5-71.2-4.5-100.8c-18.8-27.8-51.7-44-85.2-43.1c-4.2-37.1-33.2-70.3-70.3-76.8c-36.5-6.3-74.5,12.9-91.8,45.1
	c-24.8-15.2-58.3-14.9-81.9,3c-21.2,16.1-31.7,44-27.2,70c-29.6-9.6-63.4-3.3-86.4,18.2c-23.6,22.1-32.3,57.7-23,88.5
	c-27.5-1.8-57.4-2.4-81.6,12.6c-18.8,11.7-32.9,32.3-31.4,54.7c-52-9.3-106.4,1.8-151,31.1c-31.1-30.2-74.5-45.1-117.2-41.3
	c13.8-26.3,14.7-58.6,1.2-85.2c-13.5-26.3-39.2-44-67.9-49c8.7-26.9,3-57.7-15.5-79.2C11.8,369.5-7.7,360.2-28,358.1z"/>
</svg>
