<?xml version="1.0" encoding="utf-8"?>
<!-- Generator: Adobe Illustrator 22.0.1, SVG Export Plug-In . SVG Version: 6.00 Build 0)  -->
<svg version="1.1" id="Layer_1" xmlns="http://www.w3.org/2000/svg" xmlns:xlink="http://www.w3.org/1999/xlink" x="0px" y="0px"
	 viewBox="0 0 500 500" style="enable-background:new 0 0 500 500;" xml:space="preserve">
<style type="text/css">
	.st0{clip-path:url(#SVGID_2_);fill:#FFFFFF;}
	.st1{clip-path:url(#SVGID_2_);}
	.st2{fill:#F4EDD0;}
	.st3{fill:#EDDFA4;}
	.st4{fill:#FFFFFF;}
	.st5{fill:#9DB756;}
	.st6{fill:#FFD664;}
	.st7{fill:#839B2C;}
	.st8{fill:#F7B206;}
	.st9{fill:#7A3A00;}
	.st10{fill:#E08D3B;}
	.st11{fill:#A34D00;}
	.st12{fill:#FCA95E;}
	.st13{fill:#492101;}
	.st14{fill:#2F313F;}
	.st15{fill:#F9D021;}
	.st16{fill:#627513;}
	.st17{fill:#596D13;}
	.st18{fill:#E57645;}
	.st19{fill:#E54607;}
	.st20{fill:#F7A623;}
	.st21{fill:#E5745A;}
	.st22{fill:#DB6552;}
	.st23{fill:#FF8F80;}
	.st24{fill:#E0D9CA;}
	.st25{fill:#EFE9DA;}
	.st26{fill:#D6C9AE;}
	.st27{fill:#894700;}
	.st28{fill:#BA650F;}
	.st29{fill:#DBA703;}
	.st30{clip-path:url(#SVGID_4_);fill:#34303F;}
	.st31{fill:#D6CCA3;}
	.st32{fill:#FFAA39;}
	.st33{fill:#EDBC80;}
	.st34{fill:#FFF7CF;}
	.st35{fill:#FFAC06;}
	.st36{fill:#F7612D;}
	.st37{fill:#FF8B00;}
	.st38{fill:#D69854;}
	.st39{fill:#FF6E0B;}
</style>
<g>
	<defs>
		<rect id="SVGID_1_" width="500" height="500"/>
	</defs>
	<clipPath id="SVGID_2_">
		<use xlink:href="#SVGID_1_"  style="overflow:visible;"/>
	</clipPath>
	<rect class="st0" width="500" height="500" fill-opacity="0.0"/>
	<g class="st1">
		<g>
			<path class="st2" d="M390.4,269.5c-16.7,7.9-33.1,16.3-49.2,25.4l-0.4,0l-1.8,18.9c-6.3,0-12.5,0-18.7,0.1
				c-1.7,0-3.5,0.1-5.2,0.1c-21.4,0.5-41.4,1.7-59.5,3.2c-3.7,0.3-7.3,0.6-10.7,1c-24.7,2.3-44.9,5.2-58.6,7.4
				c-1,0.2-1.9,0.3-2.8,0.4c-3.1,0.5-5.8,1-8.1,1.4c-1.2,0.2-2.3,0.4-3.3,0.6c-3.5,0.6-5.3,1-5.3,1c-2.4-13.5-4.6-27-6.5-40.6
				c-0.1-1-0.3-2-0.4-3l0,0c-0.1,0.2-0.3,0.4-0.4,0.6c-2.2,3.4-4.5,6.8-6.7,10.3l-0.3-0.2c-0.6-0.1-1.2-0.3-1.9-0.4
				c-9.1-2.1-18-4.6-26.8-7.6c-5-1.7-10-3.5-15-5.5c-1.9-0.7-3.7-1.5-5.6-2.3l-0.3-0.6c10.9-25,22.3-49.9,34.1-74.4
				c-0.1,0-0.2,0-0.3,0c-2.1-0.3-2.9-3.3-1.8-5.2c1.2-1.9,3.6-2.8,5.8-3.3c-1.7-0.6-3.5-1.3-4.8-2.6c-1.3-1.3-1.8-3.6-0.6-5
				c0.5-0.6,1.2-1,1.9-1.4c3.2-1.7,11.3-5.8,19.6-9.9c0.2-0.1,0.4-0.2,0.6-0.3c0.4-0.2,0.9-0.4,1.3-0.6c3.9-2,7.9-3.9,11.3-5.6
				c1.4-0.7,2.7-1.4,3.9-2c0.7-0.4,1.3-0.7,1.9-1c1.2-0.6,2.2-1.1,3-1.5c0-0.1,0-0.2-0.1-0.3l0.8-0.2c9.8-4.2,19.7-7.8,29.8-10.9
				c-1.1,3.4-1.9,7-2.3,10.6v0c-0.4,3.5-0.5,7.1-0.2,10.6c1,13.3,6.6,26.1,14.9,36.6c1.7,2.2,3.6,4.3,6.1,5.6
				c1-6.7,4.2-12.9,7.5-18.9c0.9-1.7,2-3.5,3.7-4.4c2.7,9.9,6.1,19.6,10.2,28.9l0.6,0.1c1.8-10.1,3-20.3,3.6-30.6
				c0.2-0.1,0.4-0.1,0.6-0.2l0,0c5.9,5,10.6,11.5,13.4,18.7c1.8-1.4,3.2-3.1,4.6-4.9c9-11.4,15.2-25.1,17.8-39.5
				c1-5.4,1.4-11.1,0.5-16.5c3.9,1.8,7.7,3.7,11.4,5.8c0,0,0,0,0,0l10.3,3.9l0.6,0.2l1.4,0.5l11.6,4.5l1.9,0.7v0l1.8,0.7l0.3,0.1
				c5.6,0.3,11.3,0.8,16.9,1.6c3,0.4,6.1,0.9,8.7,2.4c0.4,0.2,0.9,0.5,1.1,1c0.5,1.1-0.6,2.3-1.7,2.7c-1.1,0.4-2.4,0.6-3.2,1.6
				c0,0,0.1,0,0.1,0.1c1.8,1.4,3.7,2.8,5.5,4.1c0.7,0.5,1.4,1,1.7,1.8c0.5,1.2-0.1,2.5-1,3.4c-0.5,0.5-1.2,0.8-1.8,1.1
				c-0.5,0.2-1,0.4-1.5,0.6c11.5,14.1,18,31.6,24.2,48.8c3.6,9.9,7.2,19.8,10.8,29.6C389.7,267.6,390,268.6,390.4,269.5"/>
			<path class="st3" d="M155.1,206.7c-0.6-1-1.7-1.7-2.5-2.4c-1.2-1-2.4-1.9-3.7-2.9c1.1-0.1,2.1-0.4,3.1-0.7
				c1.6-0.5,3.5-1.5,2.9-3.5c-0.5-1.7-2.6-2.6-4.1-3.3c-1.9-0.8-3.8-1.3-5.8-1.5c-1.3-0.1-1.3,1.9,0,2.1c1.4,0.2,2.9,0.5,4.2,1
				c1.1,0.4,2.7,1,3.5,1.9c0.4,0.5,0.1,0.6-0.3,0.9c-0.6,0.3-1.3,0.5-2,0.7c-1.5,0.4-3,0.5-4.5,0.4c-1.1-0.1-1.3,1.4-0.5,1.9
				c1.7,1.2,3.3,2.4,4.9,3.6c0.8,0.6,1.5,1.2,2.2,1.8c0.2,0.1,0.9,0.7,0.9,0.9c0,0.1-0.1,0.1-0.4,0.1c-0.8,0.1-1.6-0.2-2.4-0.3
				c-0.9-0.2-1.9-0.4-2.8-0.7c-1.9-0.6-3.6-1.3-5.3-2.2c-1.2-0.6-2.2,1.2-1.1,1.8c2.2,1.2,4.5,2.1,6.9,2.8c1.2,0.3,2.3,0.6,3.5,0.8
				c0.9,0.1,2,0.2,2.8-0.4C155.5,208.8,155.7,207.6,155.1,206.7"/>
			<path class="st3" d="M153.2,290.9c-15.2-5.4-30.2-11.4-44.9-18.1c-1.2-0.6-2.3,1.2-1.1,1.8c14.8,6.8,30,12.9,45.4,18.3
				C153.9,293.3,154.4,291.3,153.2,290.9"/>
			<path class="st3" d="M382.9,263c-14,8.2-28,16.4-42,24.6c-1.2,0.7-0.1,2.5,1.1,1.8c14-8.2,28-16.4,42-24.6
				C385.1,264.1,384.1,262.3,382.9,263"/>
			<path class="st3" d="M348.6,259c-1.4,2.6-3.1,5-4.9,7.2c-1.7-7.9-3.3-15.9-5-23.8c-0.2-1.2-2-0.9-2,0.3c0,15.1-0.1,30.1-0.1,45.2
				c0,1.3,2.1,1.3,2.1,0c0-11.8,0-23.5,0.1-35.3c1.1,5.4,2.3,10.8,3.4,16.2c0.2,0.7,1.2,1,1.7,0.5c2.5-2.8,4.7-5.9,6.6-9.2
				C351.1,258.9,349.3,257.9,348.6,259"/>
			<path class="st3" d="M349,178.7c-5.7,0.6-11,3.2-14.8,7.5c-0.5,0.6-0.3,1.5,0.5,1.7c3.2,1.2,6.1-0.4,9.1-1.3l-6.3,6.9
				c-0.7,0.7-0.1,1.7,0.7,1.8c3.1,0.4,6.2-0.7,8.5-2.8c1-0.9-0.5-2.4-1.5-1.5c-1.3,1.2-2.9,1.9-4.6,2.1c2.3-2.5,4.5-4.9,6.8-7.4
				c0.6-0.6,0.2-1.8-0.7-1.8c-2.1,0.1-3.9,0.9-5.8,1.5c-1.2,0.4-2.5,0.8-3.7,0.8c3.3-3.1,7.5-5.1,12-5.5
				C350.3,180.6,350.3,178.5,349,178.7"/>
			<path class="st3" d="M152.8,296.4c-16-5.9-32-11.7-48-17.6c7.9-19.4,16.6-38.6,25.9-57.4c2.7-5.4,5.4-10.7,8.2-16.1
				c0.6-1.2-1.2-2.2-1.8-1.1c-10,19.2-19.3,38.7-27.9,58.5c-2.4,5.5-4.7,11.1-7,16.6c-0.4,0.9,0.7,1.5,1.4,1.1l48.5,17.8
				C153.5,298.9,154.1,296.9,152.8,296.4"/>
			<path class="st3" d="M154,239.3c-0.2-1.3-2.2-0.8-2,0.6c2.6,15.9,5.2,31.9,7.8,47.8c0.2,1.3,2.2,0.8,2-0.6
				C159.2,271.2,156.6,255.3,154,239.3"/>
			<path class="st3" d="M389.3,266.1c-5.7-21.3-13.7-42-23.9-61.6c-2.9-5.6-6-11.1-9.3-16.5c-0.7-1.1-2.5-0.1-1.8,1.1
				c11.4,18.9,20.6,39,27.6,59.9c2,5.8,3.7,11.8,5.3,17.7C387.7,268,389.7,267.4,389.3,266.1"/>
			<path class="st4" d="M290.3,151.5c0.9,5.4,0.5,11.1-0.5,16.5c-2.6,14.3-8.8,28-17.8,39.5c-1.4,1.8-2.9,3.5-4.6,4.9
				c-2.8-7.2-7.4-13.7-13.4-18.7l0,0c1.8-0.7,3.2-2.3,4.5-3.7c11.1-13,19.1-28.4,26.1-44c-0.9-3.2-1.8-6.4-2.6-9.6
				c4.4,3.5,7.1,8.7,8.2,14.2C290.1,150.8,290.2,151.1,290.3,151.5"/>
			<path class="st4" d="M239.1,195.3c-1.7,0.9-2.7,2.7-3.7,4.4c-3.2,6-6.4,12.2-7.5,18.9c-2.5-1.3-4.4-3.4-6.1-5.6
				c-8.3-10.5-13.9-23.3-14.9-36.6c-0.3-3.5-0.2-7.1,0.2-10.6v0c0.4-3.6,1.2-7.1,2.3-10.6c1-3,2.3-6,3.9-8.8
				c1.3-2.4,2.9-4.7,4.7-6.9c-0.5,1.3-0.9,2.7-1.4,4c-0.2,0.7-0.5,1.4-0.7,2c-0.4,1.1-0.8,2.2-1.2,3.3v0c-0.1,0.3-0.2,0.5-0.3,0.7
				c-0.4,1-0.8,2.1-1.2,3.1c-0.1,0.2-0.1,0.3-0.2,0.5c-0.3,0.8-0.6,1.5-0.9,2.3c0.2,0.7,0.4,1.3,0.6,2c0.1,0.5,0.3,1,0.5,1.5
				c0.1,0.4,0.3,0.9,0.5,1.3c0.1,0.4,0.3,0.9,0.5,1.3c0.3,0.8,0.6,1.7,1,2.5c0.6,1.4,1.2,2.8,1.9,4.2c0.2,0.5,0.4,0.9,0.7,1.4
				c0.2,0.4,0.5,0.9,0.7,1.3c0.2,0.4,0.5,0.9,0.7,1.3c0.2,0.4,0.4,0.8,0.7,1.2c1.6,2.7,3.3,5.3,5.2,7.7c0.3,0.3,0.5,0.7,0.8,1
				c0.1,0.1,0.2,0.3,0.3,0.4c0.3,0.3,0.5,0.7,0.8,1c0.4,0.5,0.8,0.9,1.2,1.4c0.3,0.3,0.6,0.6,0.8,0.9c1.4,1.5,2.8,3,4.3,4.3
				c0.4,0.4,0.8,0.7,1.1,1c1.1,1,2.3,2,3.5,2.9c0,0,0.1,0.1,0.1,0.1C238.3,194.7,238.7,195,239.1,195.3
				C239.1,195.3,239.1,195.3,239.1,195.3"/>
			<path class="st5" d="M291.9,34.6c-0.3,6.2-1.2,12.3-2.1,18.4l-0.2,0.2c-4.2-4.3-9.1-8-14.3-10.7c-6.3-3.3-13.2-5.3-20.3-5.4
				c-7.8-0.2-15.5,1.9-22.4,5.4c-0.2,0.1-0.4,0.2-0.6,0.3c-6.4,3.4-12.1,8.2-16.9,13.6c-0.8-4.9-1.3-9.9-1.3-14.8
				c0-5,0.5-10.2,3.3-14.4c3.4-4.9,9.3-7.3,15-8.8c9-2.5,18.3-3.7,27.6-3.1c9.3,0.7,18.5,3.3,26.4,8.1c1.7,1,3.4,2.3,4.4,4
				C291.9,29.5,292,32.1,291.9,34.6"/>
			<path class="st6" d="M264.5,24.8c6.2,3.6,10.4,10.4,10.8,17.6c-6.3-3.3-13.2-5.3-20.3-5.4c-7.8-0.2-15.5,1.9-22.4,5.4l-0.1-0.2
				c0.4-7.3,4.7-14.2,11.1-17.7C250,21.1,258.2,21.2,264.5,24.8"/>
			<path class="st7" d="M292,55.7v0.2c-0.1,0-0.2,0-0.2,0v0c-2.4-0.7-4.8-1.4-7.3-2.1c-0.3-0.1-0.5-0.1-0.8-0.2
				c-10.2-2.8-20.6-5.2-31.2-5.3c-2.8,0-5.5,0.1-8.2,0.4c-4.8,0.5-9.6,1.4-14.2,2.8c-4.9,1.4-9.8,3.2-14.5,5.3
				c-0.1,0.1-0.3,0.1-0.4,0.2c0-0.2-0.1-0.3-0.1-0.5c4.8-5.4,10.5-10.2,16.9-13.6c0.2-0.1,0.4-0.2,0.6-0.3
				c6.9-3.6,14.6-5.6,22.4-5.4c7.1,0.1,14,2.1,20.3,5.4c5.3,2.8,10.2,6.4,14.3,10.7C290.4,53.9,291.2,54.8,292,55.7"/>
			<path class="st7" d="M219.9,27.4c-0.6,0-1,0.5-1,1l-0.8,5.6c-0.1,0.5,0.5,1.1,1,1c0.6,0,1-0.5,1-1l0.8-5.6
				C221.1,27.9,220.5,27.4,219.9,27.4"/>
			<path class="st7" d="M219.6,39c0-0.2-0.1-0.6-0.3-0.7c-0.2-0.2-0.5-0.3-0.7-0.3c-0.3,0-0.5,0.1-0.7,0.3c-0.2,0.2-0.3,0.4-0.3,0.7
				c-0.2,1.5-0.2,3.1-0.1,4.6c0,0.5,0.4,1.1,1,1c0.5,0,1.1-0.5,1-1C219.4,42.1,219.4,40.6,219.6,39"/>
			<path class="st7" d="M220,48c0.1-0.5-0.5-1.1-1-1c-0.6,0-1,0.5-1,1c-0.2,1.9-0.2,3.8,0,5.7c0.1,0.5,0.4,1.1,1,1
				c0.5,0,1.1-0.5,1-1C219.8,51.8,219.8,49.9,220,48"/>
			<path class="st7" d="M288,26.7c0-0.5-0.5-1.1-1-1c-0.6,0-1,0.5-1,1c0,2,0,3.9,0.1,5.9c0,0.5,0.5,1.1,1,1c0.6,0,1-0.5,1-1
				C288,30.6,288,28.6,288,26.7"/>
			<path class="st7" d="M286.9,35.4c-0.6,0-1,0.5-1,1c-0.1,1.4-0.2,2.9-0.3,4.3c0,0.5,0.5,1.1,1,1c0.6,0,1-0.5,1-1
				c0.1-1.4,0.2-2.9,0.3-4.3C288,35.9,287.4,35.4,286.9,35.4"/>
			<path class="st7" d="M286.1,43.9c-0.5-0.1-1.2,0.2-1.3,0.7l-0.9,5.3c-0.1,0.5,0.1,1.1,0.7,1.3c0.5,0.1,1.2-0.2,1.3-0.7l0.9-5.3
				C286.9,44.7,286.7,44.1,286.1,43.9"/>
			<path class="st8" d="M269.1,37.2c-2.3-7.3-9.1-12.4-16.8-12.2c-7.8,0.2-14.6,5.8-16.3,13.4c-0.3,1.3,1.7,1.9,2,0.6
				c1.6-6.7,7.4-11.6,14.3-11.8c6.7-0.2,12.8,4.2,14.8,10.7C267.5,39,269.5,38.5,269.1,37.2"/>
			<path class="st9" d="M292,55.8c1.8,0,3.5,0.1,5.1,0.8c1.3,0.6,2.5,1.6,2.7,2.9c0.1,0.7,0,1.4-0.2,2.1c-0.5,1.7-1.6,3.1-3,4.2
				c1.9,0.8,2.8,3.2,2.5,5.3c-0.3,2.1-1.5,3.9-2.7,5.6c-1.1,1.6-2.2,3.2-2.7,5c-1.4,0.5-2.5,1.9-3.4,3.1l-0.5,0.1
				c-2.3-10.3-4.1-20.8-5.3-31.3c2.4,0.7,4.9,1.4,7.3,2.1v0C291.8,55.8,291.9,55.8,292,55.8"/>
			<path class="st9" d="M252.5,48.3c10.6,0.1,20.9,2.4,31.2,5.3c-3.1,5.5-9.9,8.5-16,7.1c-7-1.6-11.9-8.1-18.7-10.5
				c-1.5-0.6-3.1-0.9-4.7-1.5C247,48.4,249.7,48.3,252.5,48.3"/>
			<path class="st9" d="M215.2,56.9c0.1-0.1,0.3-0.1,0.4-0.2c4.7-2.1,9.5-3.9,14.5-5.3c-5.3,8.1-9.8,16.8-13.3,25.8
				c-0.7-0.7-1.4-1.4-2.1-2.1c-0.9-0.9-2-2-2.1-3.3c-0.1-1.1,0.4-2.2,1.1-3.1c0.1-0.2,0.3-0.4,0.3-0.7c0.1-0.7-0.5-1.2-1-1.7
				c-1.1-1-2.1-2.3-2.1-3.8c0-1.1,0.6-2.2,1.3-3.1c0.4-0.5,0.9-1.1,1.4-1.5C214.2,57.6,214.7,57.3,215.2,56.9"/>
			<path class="st10" d="M297.9,89.2c-1.8,6.9-5.7,13.2-11.1,17.9c-1.7,6.1-4.4,11.9-7.9,17.2c0.5,2.1,1,4.2,1.5,6.3
				c0.5,1.9,0.9,3.8,1.4,5.7c0.8,3.2,1.7,6.4,2.6,9.6c-6.9,15.6-15,31-26.1,44c-1.3,1.5-2.7,3-4.5,3.7c-0.2,0.1-0.4,0.1-0.6,0.2
				c-0.6,10.2-1.8,20.5-3.6,30.6l-0.6-0.1c-4.1-9.4-7.5-19.1-10.2-28.9c0,0,0,0,0,0c0,0,0,0,0,0c-12.9-9.8-22.5-24-26.9-39.6
				c2.1-5.3,4-10.6,5.9-16c1.1-3.3,2.2-6.5,3.3-9.8c1.1-3.3,2.1-6.6,3.1-9.9c-3.3-4.9-5.2-10.9-5.3-16.8c-2.4-0.5-4.6-1.9-6.3-3.7
				c-1.9-2-3.3-4.6-4.3-7.3c-0.9-2.6-1.6-5.4-1.2-8.2c0.4-2.8,1.9-5.5,4.3-6.8c1.6-0.9,3.8-1,4.8,0.5l0.1-0.1c0-0.1,0.1-0.2,0.1-0.2
				c3.5-9.1,7.9-17.7,13.3-25.8c4.7-1.3,9.4-2.3,14.2-2.8c1.5,0.6,3.1,0.9,4.7,1.5c6.8,2.4,11.7,8.9,18.7,10.5
				c6.1,1.4,13-1.7,16-7.1c0.3,0.1,0.5,0.1,0.8,0.2c1.2,10.5,2.9,21,5.3,31.3l0.5-0.1c0.9-1.2,2.1-2.6,3.4-3.1
				c0.5-0.2,1.1-0.3,1.7-0.2c1.5,0.2,2.6,1.6,2.9,3.1C298.6,86.3,298.3,87.8,297.9,89.2"/>
			<path class="st11" d="M245.6,147c-6-3.9-10.9-9.4-13.9-15.9l0.4-0.2c1.8,3.8,6,6.1,10.1,7.7c1.7,0.7,3.5,1.3,5.3,1.8
				c5.1,1.1,10.5,0.5,15.3-1.3c4.5-1.7,8.7-4.3,12.4-7.5l0.2,0.3c-3.3,6.6-8.6,12.1-14.9,15.9c-1.8,1.1-3.7,2-5.8,2.2
				C251.6,150.3,248.4,148.8,245.6,147"/>
			<path class="st12" d="M223.6,101.1c-0.1,4.3,3.3,7.8,7.5,7.9c4.3,0.1,7.8-3.3,7.9-7.5c0.1-4.3-3.3-7.8-7.5-7.9
				C227.3,93.4,223.7,96.8,223.6,101.1"/>
			<path class="st12" d="M268.7,104.2c-0.1,4.3,3.3,7.8,7.5,7.9c4.3,0.1,7.8-3.3,7.9-7.5c0.1-4.3-3.3-7.8-7.5-7.9
				C272.3,96.6,268.8,100,268.7,104.2"/>
			<path class="st13" d="M269.5,73.1c0.2-0.7,0.7-1.4,1.4-1.7c0.7-0.3,1.6-0.5,2.3-0.2c2.8,1.2,5.5,2.6,8.1,4.2
				c0.6,0.4,1.1,1.1,1.3,1.8c0.2,0.7,0.1,1.6-0.4,2.3c-0.9,1.3-2.7,1.8-4,1c-1.9-1.2-3.9-2.3-5.9-3.2c-0.3-0.1-0.5-0.2-0.8-0.3
				c-0.7-0.3-1.3-0.7-1.7-1.4C269.4,74.8,269.3,73.8,269.5,73.1"/>
			<path class="st13" d="M228.8,71.1c2.8-0.6,5.7-1,8.6-1.3c0.7-0.1,1.6,0.4,2.1,0.9c0.5,0.5,0.9,1.4,0.8,2.1
				c-0.1,0.8-0.3,1.5-0.9,2.1l-0.6,0.4c-0.3,0.2-0.7,0.3-1.1,0.3c-2.5,0.3-5,0.7-7.4,1.1c-0.8,0.1-1.6,0.1-2.3-0.4
				c-0.6-0.4-1.2-1.1-1.3-1.8C226.4,73.2,227.2,71.4,228.8,71.1"/>
			<path class="st14" d="M268,85.5c0,0.1,0,0.2,0,0.3c0,0.2,0,0.4,0,0.6c0,0.3,0.1,0.6,0.3,0.9c0.6,1.2,1.9,1.9,3.2,2
				c0.3,0,0.7,0,1-0.1c0.3-0.1,0.5-0.2,0.7-0.3c0.1,0,0.1-0.1,0.2-0.1c0.6-0.3,1.1-0.8,1.4-1.3c0.1-0.1,0.1-0.3,0.2-0.5
				c0.1-0.1,0.1-0.3,0.2-0.4c0.1-0.3,0.1-0.6,0.2-0.9c0-0.7-0.1-1.2-0.4-1.8c-0.1-0.3-0.4-0.6-0.5-0.8c-0.1-0.1-0.1-0.2-0.2-0.2
				c-0.2-0.2-0.5-0.4-0.7-0.6c-0.2-0.1-0.5-0.2-0.7-0.3c0,0-0.1,0-0.1,0c-0.6-0.2-1.3-0.2-1.9,0c-0.6,0.1-1.1,0.5-1.6,0.9
				c-0.2,0.2-0.4,0.5-0.6,0.7c-0.1,0.1-0.1,0.2-0.1,0.2c-0.3,0.6-0.5,1-0.5,1.7C268,85.4,268,85.4,268,85.5"/>
			<path class="st14" d="M232.2,83.5c0,0.1,0,0.2,0,0.3c0,0.2,0,0.4,0,0.6c0,0.3,0.1,0.6,0.3,0.9c0.6,1.2,1.9,1.9,3.2,2
				c0.3,0,0.7,0,1-0.1c0.3-0.1,0.5-0.2,0.7-0.3c0.1,0,0.1-0.1,0.2-0.1c0.6-0.3,1.1-0.8,1.4-1.3c0.1-0.1,0.1-0.3,0.2-0.5
				c0.1-0.1,0.1-0.3,0.2-0.4c0.1-0.3,0.1-0.6,0.2-0.9c0-0.7-0.1-1.2-0.4-1.8c-0.1-0.3-0.4-0.6-0.5-0.8c-0.1-0.1-0.1-0.2-0.2-0.2
				c-0.2-0.2-0.5-0.4-0.7-0.6c-0.2-0.1-0.5-0.2-0.7-0.3c0,0-0.1,0-0.1,0c-0.6-0.2-1.3-0.2-1.9,0c-0.6,0.1-1.1,0.5-1.6,0.9
				c-0.2,0.2-0.4,0.5-0.6,0.7c-0.1,0.1-0.1,0.2-0.1,0.2c-0.3,0.6-0.5,1-0.5,1.7C232.2,83.4,232.2,83.4,232.2,83.5"/>
			<path class="st4" d="M261.3,117.1l-21.6-5.6c0,0-1.1,8.2,6.9,12.6C254.6,128.6,261.3,117.1,261.3,117.1"/>
			<path class="st11" d="M258.3,76.7c-0.6-1.2-2.4-0.1-1.8,1.1c3.8,7.5,5,16.1,3.4,24.3c-2.2,0.1-4.4,0.1-6.6,0.2c-0.6,0-1,0.5-1,1
				c0,0.6,0.5,1.1,1,1l7.6-0.2c0.6,0,1-0.5,1-1c0-0.1,0-0.3-0.1-0.4C263.7,94,262.4,84.8,258.3,76.7"/>
			<path class="st11" d="M287.6,93c-0.2,12.6-4,25-11,35.5c-0.7,1.1,1.1,2.2,1.8,1.1c7.2-10.8,11.1-23.6,11.3-36.6
				C289.7,91.6,287.6,91.6,287.6,93"/>
			<path class="st11" d="M230.7,128c-8.8-11.5-12.7-26.4-10.7-40.8c0.2-1.3-1.8-1.9-2-0.6c-2.1,14.9,1.8,30.4,10.9,42.4
				C229.7,130.1,231.5,129,230.7,128"/>
			<path class="st5" d="M362.8,500h-99.6c-3.3-16.6-7-33.1-11-49.5l-0.1-0.4c-31.6,6.4-63.2,12.8-94.7,19.2
				c1.2-32,3.8-63.9,7.7-95.6c0.6-4.7,1.2-9.6-1-13.8c-0.5-1-1.2-2-1.4-3.1c-1.1-4.6,5.1-7.8,5.8-12.4c0.4-2.3-0.7-4.6-1.3-6.9
				c-0.9-3.2-1-6-0.5-8.6c0.9-4.9,3.8-9.1,6.6-14.8c-1.5-18.5-3.2-37-5.3-55.5l0.1,0c0.8,4.8,4.1,9.3,8.7,11.1
				c4.6,1.8,10.2,0.8,13.6-2.7c4.2-4.2,4.6-10.8,4.3-16.7c-0.2-2.6-0.4-5.1-0.7-7.7c35.8-2.2,71.6-4.4,107.4-6.6l0.5,0.1
				c-0.5,3.7-0.7,7.4,0.4,11c1.4,4.6,5,8.6,9.6,10c4.6,1.4,10.1,0,13.2-3.6c2.1-2.4,3-5.4,3.5-8.5c0.1,18.5,0.3,37,0.6,55.4
				c3.2,3.3,6.4,6.6,8.5,10.7c0.4,0.9,0.8,1.8,1.2,2.7c1.3,3.6,1.6,7.5,0.2,11c-0.5,1.2-1.1,2.3-1.2,3.6c-0.2,3.1,3.1,5.2,4.6,7.9
				c2.9,4.9-0.1,11.1-0.9,16.7c-0.7,4.6,0,9.3,0.7,13.9C349.2,411.2,356,455.6,362.8,500"/>
			<path class="st15" d="M317,237.8c3.6,0,6.5,2.9,6.5,6.5c0,3.6-2.9,6.5-6.5,6.5c-3.6,0-6.5-2.9-6.5-6.5
				C310.5,240.7,313.4,237.8,317,237.8"/>
			<path class="st15" d="M180.9,246.7c4.1,0,7.5,3.4,7.5,7.5c0,4.1-3.4,7.5-7.5,7.5c-4.1,0-7.5-3.4-7.5-7.5
				C173.4,250,176.8,246.7,180.9,246.7"/>
			<path class="st7" d="M280.1,255.1l1.5,42.9c0,0-22.6,20.3-33.1,21.9c0,0-25-12.2-33.1-23.2v-38L280.1,255.1z"/>
			<path class="st7" d="M263.3,500H156.8c0.1-10.2,0.3-20.5,0.7-30.7c31.6-6.4,63.2-12.8,94.7-19.2l0.1,0.4
				C256.3,466.9,259.9,483.4,263.3,500"/>
			<path class="st7" d="M312.3,163.8c0.2-1.4,0.4-2.7,0.6-4.1c5.6,0.9,11.2,2.2,16.6,3.9l0,0c0,1.4-0.1,2.8-0.1,4.3
				c-0.5,25.7-0.7,51.4-0.6,77c-0.5,3.2-1.4,6.2-3.5,8.5c-3.2,3.7-8.6,5-13.2,3.6c-4.6-1.4-8.3-5.4-9.6-10c-1.1-3.5-0.8-7.3-0.4-11
				c0.1-0.9,0.2-1.8,0.4-2.6C305.7,210.3,309,187,312.3,163.8 M323.6,244.3c0-3.6-2.9-6.5-6.5-6.5c-3.6,0-6.5,2.9-6.5,6.5
				c0,3.6,2.9,6.5,6.5,6.5C320.7,250.9,323.6,247.9,323.6,244.3"/>
			<path class="st7" d="M194.9,250.3c-0.2-2.6-0.4-5.1-0.7-7.7c-0.9-6.8-2.3-13.6-3.7-20.3c-2.5-12.3-5.1-24.6-7.6-36.9
				c-1.3-6.3-2.6-12.6-3.9-18.8c0-0.1,0-0.2-0.1-0.3c-0.2-1.1-0.5-2.3-0.7-3.4c-6,1.3-11.8,3.5-17.1,6.4c-1.1,0.6-2.2,1.2-3.2,1.9
				c-0.4,0.2-0.8,0.5-1.1,0.7l0,0c0.2,1.5,0.5,2.9,0.7,4.4c0,0.3,0.1,0.6,0.1,0.9c4.1,26.5,7.5,53,10.5,79.7
				c0.1,0.5,0.1,1.1,0.2,1.6l0.1,0c0.8,4.8,4.1,9.3,8.7,11.1c0.3,0.1,0.5,0.2,0.8,0.3c0,0,0,0,0,0c4.4,1.4,9.6,0.3,12.8-3
				c2.2-2.2,3.3-5,3.9-8C195,256.2,195.1,253.2,194.9,250.3 M173.4,254.1c0-4.1,3.4-7.5,7.5-7.5c4.1,0,7.5,3.4,7.5,7.5
				c0,4.1-3.4,7.5-7.5,7.5C176.8,261.6,173.4,258.3,173.4,254.1"/>
			<path class="st7" d="M312.3,417.9c-0.7-4-1.5-7.9-2.2-11.9c-0.1-0.6-0.8-0.9-1.3-0.7c-0.6,0.2-0.8,0.7-0.7,1.3
				c0.7,4,1.5,7.9,2.2,11.9c0.1,0.6,0.8,0.9,1.3,0.7C312.2,419,312.4,418.5,312.3,417.9"/>
			<path class="st7" d="M324.1,412.8c-0.9-3.1-1.7-6.2-2.6-9.3c-0.4-1.3-2.4-0.7-2,0.6c0.9,3.1,1.7,6.2,2.6,9.3
				C322.5,414.7,324.5,414.1,324.1,412.8"/>
			<path class="st7" d="M335.2,409.9c-0.7-2.7-1.4-5.3-2.1-8c-0.3-1.3-2.3-0.7-2,0.6c0.7,2.7,1.4,5.3,2.1,8
				C333.5,411.7,335.5,411.2,335.2,409.9"/>
			<path class="st7" d="M333.8,425.5c-0.7-2.8-1.4-5.6-2.1-8.4c-0.3-1.3-2.3-0.7-2,0.6c0.7,2.8,1.4,5.6,2.1,8.4
				C332.2,427.3,334.2,426.8,333.8,425.5"/>
			<path class="st7" d="M324.2,429.3c-0.7-2.5-1.4-5.1-2.1-7.6c-0.2-0.5-0.7-0.9-1.3-0.7c-0.5,0.1-0.9,0.7-0.7,1.3l2.1,7.6
				c0.2,0.5,0.7,0.9,1.3,0.7C324,430.4,324.3,429.8,324.2,429.3"/>
			<path class="st7" d="M266.4,470.6c-0.4-2.4-0.8-4.8-1.3-7.2c-0.1-0.6-0.8-0.9-1.3-0.7c-0.6,0.2-0.8,0.7-0.7,1.3
				c0.4,2.4,0.8,4.8,1.3,7.2c0.1,0.6,0.8,0.9,1.3,0.7C266.3,471.7,266.5,471.1,266.4,470.6"/>
			<path class="st7" d="M278.3,470.1c-0.5-2.3-1.1-4.5-1.6-6.8c-0.1-0.5-0.8-0.9-1.3-0.7c-0.5,0.2-0.9,0.7-0.7,1.3
				c0.5,2.3,1.1,4.5,1.6,6.8c0.1,0.5,0.8,0.9,1.3,0.7C278.1,471.2,278.4,470.7,278.3,470.1"/>
			<path class="st7" d="M288.4,466.8l-1.7-6.8c-0.1-0.5-0.8-0.9-1.3-0.7c-0.5,0.2-0.9,0.7-0.7,1.3c0.6,2.3,1.1,4.5,1.7,6.8
				c0.1,0.5,0.8,0.9,1.3,0.7C288.2,467.9,288.6,467.3,288.4,466.8"/>
			<path class="st7" d="M272.7,483.2c-0.4-1.8-0.8-3.7-1.3-5.5c-0.1-0.5-0.8-0.9-1.3-0.7c-0.6,0.2-0.9,0.7-0.7,1.3l1.3,5.5
				c0.1,0.5,0.8,0.9,1.3,0.7C272.6,484.3,272.9,483.8,272.7,483.2"/>
			<path class="st7" d="M287.6,482.8c-0.7-2.4-1.4-4.8-2.1-7.2c-0.2-0.5-0.7-0.9-1.3-0.7c-0.5,0.1-0.9,0.7-0.7,1.3
				c0.7,2.4,1.4,4.8,2.1,7.2c0.2,0.5,0.7,0.9,1.3,0.7C287.4,483.9,287.7,483.3,287.6,482.8"/>
			<path class="st7" d="M187.7,337.9c-1.7,0.6-3.6,1.4-5.5,0.9c-1.7-0.5-2.5-1.9-2-3.6c0.6-1.8,2-3.5,3-5.1c1.1-1.7,2.2-3.3,3.3-5
				c0.9-1.3,2.1-2.7,2.3-4.3c0.2-1.4-0.6-2.6-2-2.9c-1.5-0.2-2.9,0.7-4.2,1.4c-1.5,0.8-2.9,1.7-4.3,2.7c-3,2.2-5.7,4.9-7.9,7.9
				c-0.8,1.1,1,2.1,1.8,1.1c2-2.6,4.3-5,6.9-7c1.3-1,2.6-1.8,4-2.6c0.7-0.4,1.4-0.8,2.1-1.1c0.5-0.2,1.5-0.8,1.5,0.1
				c0,0.6-0.5,1.2-0.8,1.7c-0.6,0.9-1.1,1.7-1.7,2.6c-1.1,1.6-2.1,3.2-3.2,4.8c-1.6,2.5-4.5,5.9-2.6,9c2.1,3.4,6.5,2.5,9.6,1.3
				C189.5,339.4,189,337.4,187.7,337.9"/>
			<path class="st7" d="M332.7,309.9c1.3,0.4,1.8-1.6,0.6-2c-7.8-2.4-16.3-1.7-23.7,1.9c-0.7,0.3-0.7,1.5,0,1.8l7.4,3.2
				c1.1,0.5,2.2,0.9,3.2,1.4c0.8,0.4,2,0.8,2.5,1.6c1.3,2.2-2.5,3.8-3.9,4.6c-1.6,0.9-2.8,2.2-3.3,3.9c-1.1,3.6,0.8,7.2,3.8,9.1
				c3.9,2.5,8.7,2.2,13.1,1.7c1.3-0.1,1.3-2.2,0-2.1c-4.3,0.4-9.6,1-13.1-2.2c-1.4-1.3-2.2-3-2.1-4.8c0.1-2.3,1.7-3.4,3.6-4.4
				c1.6-0.9,3.3-2,3.9-3.9c0.5-1.6-0.2-3.1-1.5-4.2c-1.6-1.3-3.9-2-5.8-2.8l-4.8-2.1C319.1,308.2,326.2,307.9,332.7,309.9"/>
			<path class="st7" d="M293.6,265.3c-0.4-1.3-2.4-0.7-2,0.6c1,3.1,1.4,6.3,1,9.5c-0.1,0.6,0.5,1,1,1c0.6,0,1-0.5,1-1
				C295,271.9,294.6,268.5,293.6,265.3"/>
			<path class="st7" d="M304,265.6c-0.1-0.6-0.4-1-1-1c-0.5,0-1.1,0.5-1,1l1.2,9.3c0.1,0.6,0.4,1,1,1c0.5,0,1.1-0.5,1-1L304,265.6z"
				/>
			<path class="st7" d="M315.1,266.3c-0.6,0-1,0.5-1,1v7.6c0,0.6,0.5,1,1,1c0.6,0,1-0.5,1-1v-7.6
				C316.2,266.7,315.7,266.3,315.1,266.3"/>
			<path class="st7" d="M300.3,282c0-0.5-0.5-1.1-1-1c-0.5,0-1.1,0.5-1,1c0.1,2,0.2,3.9,0.4,5.9c0,0.5,0.5,1.1,1,1
				c0.5,0,1.1-0.5,1-1C300.5,286,300.4,284,300.3,282"/>
			<path class="st7" d="M311.2,281.6c-0.1-0.6-0.4-1-1-1c-0.5,0-1.1,0.5-1,1c0.3,2.7,0.6,5.3,0.9,8c0.1,0.6,0.4,1,1,1
				c0.5,0,1.1-0.5,1-1C311.8,287,311.5,284.3,311.2,281.6"/>
			<path class="st7" d="M193.6,283.7c0-0.6-0.4-1-1-1c-0.5,0-1.1,0.5-1,1c0.2,3.1,0.5,6.2,0.7,9.3c0,0.6,0.4,1,1,1
				c0.5,0,1.1-0.5,1-1C194.1,289.9,193.9,286.8,193.6,283.7"/>
			<path class="st7" d="M204.6,284.6c-0.1-0.6-0.4-1-1-1c-0.5,0-1.1,0.5-1,1c0.3,2.8,0.6,5.6,0.9,8.4c0.1,0.6,0.4,1,1,1
				c0.5,0,1.1-0.5,1-1C205.2,290.2,204.9,287.4,204.6,284.6"/>
			<path class="st7" d="M201.1,295.5c0-0.6-0.5-1-1-1c-0.5,0-1.1,0.5-1,1c0.1,2.5,0.3,5.1,0.4,7.6c0,0.6,0.5,1,1,1
				c0.5,0,1.1-0.5,1-1C201.4,300.6,201.2,298.1,201.1,295.5"/>
			<path class="st7" d="M171.7,436.3l-0.9,12.2c-0.1,1.3,2,1.3,2.1,0l0.9-12.2C173.9,434.9,171.8,435,171.7,436.3"/>
			<path class="st7" d="M183.5,436.3c-0.1-0.6-0.4-1-1-1c-0.5,0-1.1,0.5-1,1c0.4,3.5,0.8,7,1.2,10.5c0.1,0.6,0.4,1,1,1
				c0.5,0,1.1-0.5,1-1C184.2,443.3,183.9,439.8,183.5,436.3"/>
			<path class="st7" d="M197.8,435.9c-0.1-0.6-0.4-1-1-1c-0.5,0-1.1,0.5-1,1l0.8,8c0.1,0.6,0.4,1,1,1c0.5,0,1.1-0.5,1-1L197.8,435.9
				z"/>
			<path class="st7" d="M178.3,450.6c0-0.6-0.5-1-1-1c-0.5,0-1.1,0.5-1,1c0.1,2.8,0.3,5.6,0.4,8.4c0,0.6,0.5,1,1,1
				c0.5,0,1.1-0.5,1-1C178.6,456.2,178.5,453.4,178.3,450.6"/>
			<path class="st7" d="M192.8,447.7c0-0.6-0.5-1-1-1c-0.5,0-1.1,0.5-1,1c0.1,2.5,0.3,5.1,0.4,7.6c0,0.6,0.5,1,1,1
				c0.5,0,1.1-0.5,1-1C193.1,452.7,192.9,450.2,192.8,447.7"/>
			<path class="st7" d="M354.1,487.4c-0.6-3.1-1.1-6.2-1.7-9.3c-0.1-0.6-0.8-0.9-1.3-0.7c-0.6,0.2-0.8,0.7-0.7,1.3
				c0.6,3.1,1.1,6.2,1.7,9.3c0.1,0.6,0.8,0.9,1.3,0.7C353.9,488.5,354.2,488,354.1,487.4"/>
			<path class="st7" d="M350.7,472.3l-2.5-8c-0.2-0.5-0.7-0.9-1.3-0.7c-0.5,0.1-0.9,0.7-0.7,1.3l2.5,8c0.2,0.5,0.7,0.9,1.3,0.7
				C350.5,473.4,350.9,472.8,350.7,472.3"/>
			<path class="st7" d="M345.3,479l-1.7-7.6c-0.1-0.5-0.8-0.9-1.3-0.7c-0.6,0.2-0.8,0.7-0.7,1.3c0.6,2.5,1.1,5.1,1.7,7.6
				c0.1,0.6,0.8,0.9,1.3,0.7C345.1,480.1,345.4,479.5,345.3,479"/>
			<path class="st5" d="M277.3,276.5c-0.3-5.2-0.5-10.3-0.8-15.5c0.7-0.5,0.6-1.9-0.6-1.9c0,0-0.1,0-0.1,0c-0.3-0.2-0.7-0.1-1,0
				c-18.2,0.4-36.5,1.4-54.6,3c-0.6,0.1-1,0.4-1,1l0.1,14.7l0,7.2c0,2.2-0.1,4.5,0.2,6.7c0.7,4,4.2,6.1,7.2,8.3c4,2.9,8,5.8,12,8.7
				c2,1.4,3.9,2.8,5.9,4.3c1.6,1.2,3.3,2.6,5.3,3c1.8,0.4,3.5-0.2,5-1.2c1.9-1.2,3.7-2.6,5.5-3.9c3.7-2.8,7.4-5.6,11.1-8.5
				c1.7-1.3,3.6-2.6,5-4.3c1.2-1.5,1.6-3.3,1.6-5.2C278.1,287.4,277.6,281.9,277.3,276.5 M273.3,298.3c-3.3,2.8-6.8,5.5-10.3,8.1
				c-1.7,1.3-3.5,2.6-5.2,3.9c-1.6,1.1-3.1,2.5-4.9,3.4c-2,0.9-3.8,0-5.4-1.1c-1.8-1.2-3.6-2.6-5.3-3.8l-11-7.9
				c-1.8-1.3-3.6-2.6-5.4-3.9c-1.4-1-2.9-2.2-3.7-3.8c-1-2.1-0.7-4.9-0.7-7.2c0-2.5,0-5,0-7.5c0-4.8,0-9.5-0.1-14.3
				c17.7-1.6,35.4-2.5,53.2-2.9c0.4,8.5,0.9,17.1,1.3,25.6c0.1,2.1,0.3,4.3,0.3,6.4C276,295.5,275,296.9,273.3,298.3"/>
			<path class="st16" d="M176.8,172.6l-0.9-5.1c-0.1-0.5-0.8-0.9-1.3-0.7c-0.6,0.2-0.8,0.7-0.7,1.3l0.9,5.1c0.1,0.5,0.8,0.9,1.3,0.7
				C176.6,173.7,176.9,173.2,176.8,172.6"/>
			<path class="st16" d="M179.3,183.2c-0.3-1.8-0.6-3.6-0.9-5.4c-0.1-0.5-0.8-0.9-1.3-0.7c-0.6,0.2-0.8,0.7-0.7,1.3
				c0.3,1.8,0.6,3.6,0.9,5.4c0.1,0.5,0.8,0.9,1.3,0.7C179.1,184.3,179.4,183.8,179.3,183.2"/>
			<path class="st16" d="M181.5,194.3c-0.4-1.9-0.8-3.7-1.1-5.6c-0.1-0.5-0.8-0.9-1.3-0.7c-0.6,0.2-0.8,0.7-0.7,1.3
				c0.4,1.9,0.8,3.7,1.1,5.6c0.1,0.5,0.8,0.9,1.3,0.7C181.3,195.4,181.6,194.9,181.5,194.3"/>
			<path class="st16" d="M183.5,201.7c0-0.3-0.1-0.5-0.3-0.7c-0.2-0.2-0.5-0.3-0.7-0.3c-0.5,0-1.1,0.5-1,1c0.2,1.5,0.4,3,0.6,4.5
				c0,0.3,0.1,0.5,0.3,0.7c0.2,0.2,0.5,0.3,0.7,0.3c0.5,0,1.1-0.5,1-1C183.9,204.7,183.7,203.2,183.5,201.7"/>
			<path class="st16" d="M187.3,218.1l-1.1-5.4c-0.1-0.5-0.8-0.9-1.3-0.7c-0.6,0.2-0.8,0.7-0.7,1.3l1.1,5.4c0.1,0.5,0.8,0.9,1.3,0.7
				C187.1,219.2,187.4,218.7,187.3,218.1"/>
			<path class="st16" d="M189.7,229.5c-0.4-1.6-0.7-3.2-1.1-4.9c-0.1-0.5-0.8-0.9-1.3-0.7c-0.6,0.2-0.9,0.7-0.7,1.3
				c0.4,1.6,0.7,3.2,1.1,4.9c0.1,0.5,0.8,0.9,1.3,0.7C189.5,230.6,189.8,230.1,189.7,229.5"/>
			<path class="st16" d="M192.1,242.3c-0.3-2-0.6-4-0.9-6c-0.1-0.5-0.8-0.9-1.3-0.7c-0.6,0.2-0.8,0.7-0.7,1.3c0.3,2,0.6,4,0.9,6
				c0.1,0.5,0.8,0.9,1.3,0.7C192,243.3,192.2,242.8,192.1,242.3"/>
			<path class="st16" d="M193.7,250c0-0.5-0.4-1.1-1-1c-0.5,0-1.1,0.5-1,1c0.1,1.6,0.2,3.1,0.4,4.7c0,0.5,0.4,1.1,1,1
				c0.5,0,1.1-0.5,1-1C193.9,253.1,193.8,251.6,193.7,250"/>
			<path class="st16" d="M193.3,259.7c-1.5,7-9.1,11-15.6,8c-6.3-2.9-7.8-10.4-8.7-16.5c-2.4-16.8-4.6-33.6-6.9-50.5
				c-1.3-9.6-2.6-19.2-3.9-28.8c-0.2-1.3-2.2-0.8-2,0.6l7.5,55c1.2,8.8,2.2,17.8,3.7,26.6c1.1,6.5,3.7,13.5,10.4,16
				c7.5,2.8,15.8-2,17.5-9.8C195.6,258.9,193.6,258.4,193.3,259.7"/>
			<path class="st16" d="M326.1,248.8c-3,5.9-10.1,9-16.3,6.2c-3.1-1.4-5.4-4-6.3-7.2c-1-3.4-0.7-7.1-0.3-10.6
				c2.1-16.4,4.7-32.8,7.1-49.2c1.3-9.3,2.7-18.5,4-27.8c0.2-1.3-1.8-1.9-2-0.6c-2.6,18-5.2,36-7.8,54c-0.6,4.5-1.3,8.9-1.9,13.4
				c-0.6,4.2-1.4,8.4-1.7,12.6c-0.3,3.6-0.1,7.4,1.4,10.7c1.4,3,4,5.3,7,6.6c7.1,3,15.2-0.5,18.6-7.2
				C328.5,248.7,326.7,247.6,326.1,248.8"/>
			<path class="st16" d="M326.6,165.8c-0.6,0-1,0.5-1,1c-0.1,2.1-0.1,4.1-0.2,6.2c0,0.5,0.5,1.1,1,1c0.6,0,1-0.5,1-1
				c0.1-2.1,0.1-4.1,0.2-6.2C327.6,166.3,327.1,165.8,326.6,165.8"/>
			<path class="st16" d="M326.8,178.7c0-0.5-0.5-1.1-1-1c-0.5,0-1.1,0.5-1,1c0.1,1.9,0.1,3.9,0.2,5.8c0,0.5,0.5,1.1,1,1
				c0.5,0,1.1-0.5,1-1C326.9,182.5,326.9,180.6,326.8,178.7"/>
			<path class="st16" d="M326,189.6c-0.6,0-1,0.3-1,0.8v5.1c0,0.4,0.5,0.8,1,0.8c0.6,0,1-0.3,1-0.8v-5.1
				C327,189.9,326.5,189.6,326,189.6"/>
			<path class="st16" d="M326.3,203.5c-0.6,0-1,0.5-1,1c-0.1,2.4-0.1,4.7-0.2,7.1c0,0.6,0.5,1,1,1c0.6,0,1-0.5,1-1
				c0.1-2.4,0.1-4.7,0.2-7.1C327.4,203.9,326.9,203.5,326.3,203.5"/>
			<path class="st16" d="M326.3,215.6c-0.6,0-1,0.5-1,1v5.8c0,0.5,0.5,1.1,1,1c0.6,0,1-0.5,1-1v-5.8
				C327.4,216.1,326.9,215.6,326.3,215.6"/>
			<path class="st16" d="M327.3,228.5c0-0.5-0.5-1.1-1-1c-0.5,0-1.1,0.5-1,1c0.1,2.1,0.2,4.2,0.4,6.4c0,0.5,0.5,1.1,1,1
				c0.5,0,1.1-0.5,1-1C327.5,232.7,327.4,230.6,327.3,228.5"/>
			<path class="st10" d="M120.8,287l32.1,9.5L149.6,427l29.9,0.5c0,0,0.8,7.7-3.2,8.7c-4,1-7.4,2.6-16.6,2.8
				c-9.2,0.2-11,7.4-21.1,5.1c-10.1-2.4-9.7-12.5-13.3-17.9c-3.6-5.4-16.4-44.6-9.1-81.2S120.8,287,120.8,287"/>
			<path class="st10" d="M379,275c0,0,14,53.5,14.1,61.5c0.1,8-17.7,92.2-17.7,92.2s-9.2,16.5-14.3,15.9c-5-0.7-18.7,5.4-25.2-2.2
				c-6.5-7.5-12.4-8.4-8.2-12.4l23.1,0.4l-9.5-136.3L379,275z"/>
			<path class="st17" d="M363.1,252.5c-1,2.5-3.6,3.9-6.2,4.6c-3.6,1-7.6,1-10.7-1c0.4-0.9,1.3-1.6,2.1-2.1
				C352.7,251.3,358.3,250.8,363.1,252.5L363.1,252.5z"/>
			<path class="st17" d="M380.4,247.4c-1.9-0.5-3.7-1.5-5.3-2.8l0.3-0.4c0.3-0.5,0.9-0.8,1.4-1c4.1-1.8,9.1-1.1,12.5,1.6
				c-0.6,0.9-1.6,1.6-2.6,2.1C384.8,247.9,382.5,248,380.4,247.4"/>
			<path class="st17" d="M367.3,233.7c0.9-1.7,2.7-2.8,4.5-3.3c1.9-0.6,3.9-0.6,5.8-0.6c2,0.1,4,0.2,5.8,1c-0.4,1.7-1.9,2.9-3.4,3.7
				c-2.6,1.3-5.6,1.5-8.4,0.7c-1.3-0.4-2.5-1-3.9-1.3L367.3,233.7z"/>
			<path class="st17" d="M353.1,208.7c-1,1.3-2.1,2.7-3.7,3.3c-0.1-0.2-0.2-0.4-0.2-0.6c-0.5-3.1,0-6.3,1.4-9.1
				c1.4-2.8,3.7-5.1,6.4-6.6c0.4,2.1,0.3,4.2-0.3,6.3C355.9,204.5,354.6,206.7,353.1,208.7"/>
			<path class="st17" d="M367.6,209.4c-1.4,2-3,3.9-4.8,5.5c-1.8,1.6-3.9,3-6.2,3.8c-2.3,0.7-4.9,0.8-7-0.2
				C353.3,212.5,360.5,208.8,367.6,209.4"/>
			<path class="st17" d="M349,242.5c-2.1-2-3.3-5-3.1-8c0.2-2.8,1.6-5.6,3.8-7.3c1,1.7,1.8,3.5,2.2,5.5c0.4,2.1,0.4,4.3-0.4,6.3
				c-0.5,1.2-1.2,2.3-2.2,3.2L349,242.5z"/>
			<path class="st17" d="M343.2,250.5C343.2,250.5,343.2,250.6,343.2,250.5l-0.2,0.1c-1.6-0.1-3-1-4.1-2.2c-1.3-1.4-2.3-3.1-2.6-5
				c-0.3-1.9,0.2-3.9,1.6-5.3c0.1-0.1,0.2-0.2,0.2-0.2c1.5,1.7,2.8,3.6,3.8,5.7C342.9,245.7,343.4,248.1,343.2,250.5"/>
			<path class="st17" d="M323.3,260.4c-2.5-0.7-4.8-2.3-6.3-4.5l0.1-0.1c1.3-0.6,2.6-0.9,4-1c4-0.3,8.1,1.1,10.9,4
				c-0.1,0.3-0.4,0.5-0.7,0.7C328.9,260.8,325.9,261.2,323.3,260.4"/>
			<path class="st17" d="M334.5,235.9c-1.2,0.9-2.6,1.9-4.1,1.7l-0.2,0c-0.2-0.8-0.2-1.5-0.1-2.3c0.2-2.9,1.7-5.6,3.6-7.7
				c2-2.1,4.5-3.7,7.1-4.9l0.5-0.1c0.5,2.6-0.2,5.3-1.6,7.5C338.5,232.4,336.6,234.2,334.5,235.9"/>
			<path class="st17" d="M317.9,242.7c-1.2,1.2-2.8,1.9-4.4,2.4c-3.2,0.9-6.7,1.1-9.9,0.1c1.7-2.9,4.4-5.3,7.5-6.6
				c3.2-1.4,6.9-1.8,10.3-1.1l0.1,0.1C320.1,239.2,319.4,241.3,317.9,242.7"/>
			<path class="st17" d="M329.7,222.2c-0.9,4-3,7.7-6.1,10.3c-2.1-3.5-2.5-7.8-1.5-11.7c1.1-4.2,3.9-7.9,7.4-10.5l0.1,0
				C330.4,214.2,330.6,218.3,329.7,222.2"/>
			<path class="st17" d="M311.9,225.5c0.2,0.2,0.3,0.5,0.2,0.7c-4.4-0.2-8.7-1.5-12.5-3.7c-3-1.8-5.9-4.6-6.2-8.2l-0.1-0.2
				c3.7-1.1,7.8,0.2,10.9,2.5C307.4,219,309.7,222.3,311.9,225.5"/>
			<path class="st7" d="M316.3,225.2c-1.6-2.3-2.9-4.9-3.2-7.7c-0.3-2.8,0.6-5.7,2.7-7.5c0.9,1,1.4,2.2,1.8,3.4
				C318.8,217.3,318.3,221.6,316.3,225.2"/>
			<path class="st7" d="M312.8,231.3c-1.5,2.8-4.3,4.7-7.4,5.5c-3.1,0.8-6.3,0.4-9.3-0.7l0,0c4-4.8,10.8-7,16.9-5.5
				C313,230.8,312.9,231.1,312.8,231.3"/>
			<path class="st7" d="M328.8,248.7c-1.6,2-4.2,3.2-6.8,3.3c-0.7,0-1.4,0-2.2-0.1c-2-0.3-3.9-1-5.7-1.9l0.3-0.5
				c2.2-1.3,4.6-2.5,7.2-2.8C324.2,246.4,327,247,328.8,248.7"/>
			<path class="st7" d="M344.4,206.2c1.6,2.4,2.6,5.3,2.3,8.1c-2.9-1.5-5.2-3.7-7.4-6c-1.3-1.3-2.5-2.7-3-4.4
				c-0.5-1.7,0-3.9,1.6-4.7C340.3,201.3,342.7,203.5,344.4,206.2"/>
			<path class="st7" d="M359.2,235.3c-1.7-1.5-2.7-3.7-2.8-5.9c-0.1-2.3,0.8-4.7,2.5-6.3c1.4,1.8,2.2,4,2.3,6.2
				C361.1,231.4,360.4,233.6,359.2,235.3"/>
			<path class="st7" d="M355.5,245.5c0.7-0.7,1.5-1.2,2.3-1.6c3.6-1.7,7.8-0.9,11.7-0.1l0,0c0,0.9-0.3,1.8-0.9,2.5
				c-1.2,1.6-3.2,2.3-5.2,2.4c-2,0-3.9-0.6-5.7-1.2c-1-0.4-2-0.8-2.8-1.5L355.5,245.5z"/>
			<path class="st18" d="M275.3,411.3c-0.5-0.3-0.8-0.8-1-1.3c-1.4-3.3-1.7-6.9-1.8-10.5c0-9.6,2-19,4.2-28.3c0-0.1,0-0.2,0.1-0.3
				c0.2-0.8,0.4-1.6,0.6-2.4c0,0,0,0.1,0.1,0.1c2.6-9.3,10-34.8,11.3-39.6c0.8-2.9,1.6-5.7,2.4-8.6c2-6.9,4.1-13.7,6.3-20.5
				c2-6.2,4.1-12.4,7.1-18.1c1.5-2.8,3.2-5.5,5.6-7.5c5.8-4.8,14.3-4.6,21.6-2.7c5.5,1.4,10.8,3.5,15.7,6.3c1.5,0.9,3,1.8,4,3.2
				c2.1,3,1.5,7,0.5,10.6c-1.6,5.7-4,11.2-6.4,16.6c-1.6,3.6-3.2,7.1-4.8,10.6c-1.4,3-2.8,6-4.3,9c-2.6,5.4-5.3,10.9-8,16.2
				c-1.4,2.7-3,5.3-4.2,8.1c-7.5,18.4-41.9,54.4-45.9,58C277.6,410.9,276.4,411.8,275.3,411.3"/>
			<path class="st17" d="M378.3,239.1c0.6,0.1,1-0.9,0.3-1c-8.3-1.8-16.9,0.2-24.1,4.5c-4.2,2.5-8,5.7-11.4,9.3
				c-3.1,3.3-5.9,7-8.2,10.9c-0.4,0.6-0.7,1.2-1,1.9c0.5-3,0.6-6.1,0.3-9.1c-0.9-7.5-4.5-14.4-9.4-20c-3-3.5-6.6-6.6-10.4-9.2
				c-0.5-0.4-1.1,0.5-0.6,0.9c6.4,4.5,12.2,10.2,15.8,17.3c1.6,3.1,2.8,6.5,3.3,10c0.6,3.5,0.5,7-0.1,10.4c-0.2,1.5-0.6,2.9-1,4.3
				c-0.5,1.4-1,2.8-1.4,4.2c-0.3,0.9-0.7,1.8-1.1,2.7c-0.1,0.3,0.1,0.6,0.4,0.6c0,0.6,0.9,0.6,1,0c0.2-1,0.4-1.9,0.6-2.9
				c0.5-1.5,1-2.9,1.4-4.4c2.2-5.7,5.8-10.9,9.8-15.4c5.9-6.7,13.5-12.4,22.3-14.5C369.3,238.3,373.9,238.1,378.3,239.1"/>
			<path class="st17" d="M339.3,236.7c3.4-7.8,6.9-15.5,10.4-23.2c0.3-0.6-0.7-0.9-1-0.3c-3.5,7.7-7,15.5-10.4,23.2
				C338.1,237,339.1,237.3,339.3,236.7"/>
			<path class="st17" d="M356.7,261.4c-7.7,1-15,4.5-20.7,9.8c-1.6,1.5-3.1,3.2-4.5,4.9c-0.4,0.5,0.5,1.1,0.9,0.6
				c4.6-6,11.1-10.6,18.3-12.9c2-0.6,4.1-1.1,6.2-1.4C357.6,262.3,357.4,261.3,356.7,261.4"/>
			<path class="st17" d="M350.1,269.3c-3.1,0.7-6.2,1.6-9.2,2.9c-1.5,0.6-2.9,1.4-4.3,2.2c-0.6,0.3-3.1,1.4-2,2.4
				c0.4,0.4,1.1-0.1,0.9-0.6c0,0,0.1,0,0.2-0.1c0.2-0.1,0.3-0.2,0.5-0.3c0.3-0.2,0.5-0.3,0.8-0.5c0.6-0.3,1.2-0.7,1.7-1
				c1.2-0.6,2.5-1.2,3.7-1.7c2.5-1,5.1-1.8,7.8-2.4C351,270.1,350.8,269.1,350.1,269.3"/>
			<path class="st17" d="M327,274.2c0.3-0.7,0.2-1.5,0.2-2.2c-0.1-0.9-0.1-1.7-0.2-2.6c-0.2-1.7-0.4-3.4-0.7-5.1
				c-0.1-0.7-1.1-0.4-1,0.2c0.3,1.6,0.5,3.2,0.7,4.8c0.1,0.8,0.2,1.6,0.2,2.4c0.1,0.7,0.2,1.5-0.1,2.2
				C325.7,274.5,326.7,274.8,327,274.2"/>
			<path class="st7" d="M346.6,273.9c-3.5,1.1-6.9,2.5-10.2,4.1c-0.6,0.3-0.1,1.2,0.5,0.9c3.2-1.6,6.5-2.9,9.9-4
				C347.4,274.7,347.2,273.7,346.6,273.9"/>
			<path class="st7" d="M325.1,273.6c-0.7-3.3-2.3-6.4-4-9.3c-0.3-0.6-1.3-0.1-0.9,0.5c1.6,2.9,3.2,5.8,3.9,9.1
				C324.2,274.5,325.2,274.3,325.1,273.6"/>
			<path class="st19" d="M341.5,279c-6.7-1.2-13.1-3.6-19-7c-0.6-0.3-1.1,0.5-0.6,0.9c6,3.4,12.5,5.8,19.3,7.1
				C341.8,280.1,342.1,279.1,341.5,279"/>
			<path class="st19" d="M314.8,287c-3.1-1.3-6.1-2.9-9-4.8c-0.6-0.4-1.1,0.5-0.6,0.9c2.9,1.9,6,3.6,9.2,4.9
				C315.1,288.3,315.4,287.3,314.8,287"/>
			<path class="st19" d="M341,295c-6.4-1.3-12.8-3.1-18.9-5.4c-0.6-0.2-0.9,0.8-0.3,1c6.2,2.2,12.5,4,18.9,5.4
				C341.4,296.1,341.7,295.1,341,295"/>
			<path class="st19" d="M319,295.9c-3.1-1.2-6-2.7-8.9-4.4c-0.6-0.3-1.1,0.5-0.6,0.9c2.9,1.7,6,3.2,9.1,4.5
				C319.3,297.1,319.6,296.1,319,295.9"/>
			<path class="st19" d="M339.6,319.9c-3-0.9-6-1.9-9-3.1c-0.6-0.3-0.9,0.7-0.3,1c2.9,1.2,5.9,2.3,9,3.1
				C339.9,321.1,340.2,320.1,339.6,319.9"/>
			<path class="st19" d="M322.9,312.8c-3.2-1.3-6.3-2.7-9.4-4.2c-0.6-0.3-1.2,0.6-0.6,0.9c3.2,1.6,6.4,3,9.7,4.3
				C323.2,314,323.5,313,322.9,312.8"/>
			<path class="st19" d="M330.2,321.5c-3.9-1.4-7.7-3-11.5-4.6c-0.6-0.3-0.9,0.7-0.3,1c3.8,1.6,7.6,3.1,11.5,4.6
				C330.5,322.7,330.9,321.7,330.2,321.5"/>
			<path class="st19" d="M303.4,331.7c-2.3-0.7-4.7-1.4-7-2.2c-2.1-0.7-4.5-1.5-6.2-3c-0.5-0.4-1.3,0.2-0.8,0.7
				c1.7,1.6,4,2.4,6.2,3.1c2.5,0.9,4.9,1.6,7.4,2.4C303.8,332.9,304.1,331.9,303.4,331.7"/>
			<path class="st19" d="M298.3,337.8c-1.6-0.6-3.2-1.3-4.8-1.9c-1.5-0.7-3.2-1.3-4.3-2.5c-0.4-0.5-1.2,0.2-0.8,0.7
				c1.2,1.3,2.9,2,4.4,2.7c1.7,0.7,3.4,1.4,5.1,2.1C298.6,339.1,298.9,338.1,298.3,337.8"/>
			<path class="st19" d="M323.8,350.5c-4.6-1.4-9.2-3.3-13.5-5.5c-0.6-0.3-1.2,0.6-0.6,0.9c4.4,2.3,9,4.2,13.7,5.6
				C324.1,351.7,324.4,350.7,323.8,350.5"/>
			<path class="st19" d="M322.8,355c0.1-0.2-0.1-0.6-0.3-0.7c-2.7-0.5-5.2-1.4-7.7-2.6c-0.6-0.3-1.2,0.6-0.6,0.9
				c2.5,1.3,5.2,2.2,7.9,2.8C322.5,355.4,322.7,355.3,322.8,355"/>
			<path class="st19" d="M319.5,358.3c-1.9-0.5-3.7-1.3-5.3-2.2c-0.6-0.3-1.1,0.5-0.6,0.9c1.7,1,3.6,1.8,5.6,2.3
				C319.8,359.5,320.2,358.5,319.5,358.3"/>
			<path class="st19" d="M308.4,323c-2.7-0.9-5.4-1.9-8-3.2c-0.6-0.3-1.2,0.6-0.6,0.9c2.6,1.3,5.4,2.5,8.2,3.4
				C308.7,324.2,309,323.2,308.4,323"/>
			<path class="st19" d="M306.6,325.5c-1.4-0.4-2.7-1-4-1.7c-0.2-0.1-0.6-0.1-0.7,0.2c-0.1,0.2-0.1,0.6,0.2,0.7
				c1.3,0.8,2.8,1.4,4.2,1.8C307,326.7,307.3,325.7,306.6,325.5"/>
			<path class="st19" d="M292.4,379.2c-2.6-0.6-5.2-1.4-7.7-2.4c-1.3-0.5-2.5-1-3.7-1.6c-0.6-0.3-1.2-0.6-1.9-1
				c-0.2-0.1-1.4-0.8-1.7-0.9c0.1-0.3,0-0.7-0.4-0.7l-0.1,0c-0.2,0-0.4,0.1-0.5,0.4c-0.2,0.5,0.2,0.9,0.6,1.1c0.7,0.4,1.3,0.8,2,1.1
				c1.4,0.7,2.8,1.4,4.2,2c2.9,1.2,5.9,2.2,8.9,2.9C292.7,380.4,293,379.4,292.4,379.2"/>
			<path class="st19" d="M284,383.7c-3.5-0.7-6.7-2.2-9.6-4.4c-0.5-0.4-1.1,0.5-0.6,0.9c2.9,2.2,6.3,3.7,9.8,4.5
				C284.3,384.8,284.6,383.8,284,383.7"/>
			<path class="st19" d="M291.5,395.2c-3.7-0.6-7.4-1.7-10.8-3.3c-0.6-0.3-0.9,0.7-0.3,1c3.5,1.6,7.2,2.7,11.1,3.3
				C292.1,396.3,292.1,395.3,291.5,395.2"/>
			<path class="st19" d="M288.3,399.6c-2.8-0.4-5.6-1.3-8.1-2.6c-0.6-0.3-1.2,0.6-0.6,0.9c2.7,1.5,5.6,2.4,8.6,2.8
				C288.9,400.8,288.9,399.7,288.3,399.6"/>
			<path class="st19" d="M279.8,402.7c0.1-0.3-0.1-0.6-0.3-0.7c-1.6-0.4-3.1-1-4.6-1.7c-0.3-0.1-0.6-0.1-0.7,0.2
				c-0.1,0.2-0.1,0.6,0.2,0.7c1.5,0.8,3.2,1.4,4.8,1.8C279.4,403.1,279.7,403,279.8,402.7"/>
			<path class="st19" d="M316.5,364.2c-6.4-0.9-12.6-2.9-18.2-6c-0.6-0.3-1.2,0.6-0.6,0.9c5.8,3.2,12.2,5.3,18.7,6.2
				C317.1,365.3,317.1,364.3,316.5,364.2"/>
			<path class="st19" d="M312.1,315.1c-6-1.8-11.7-4.2-17.2-7.2c-0.6-0.3-1.2,0.6-0.6,0.9c5.5,3.1,11.4,5.5,17.4,7.3
				C312.4,316.3,312.7,315.3,312.1,315.1"/>
			<path class="st19" d="M331.5,335.5c-3.1-0.7-6.1-1.9-8.8-3.5c-0.6-0.3-1.1,0.5-0.6,0.9c2.8,1.7,5.9,2.9,9.1,3.6
				C331.9,336.6,332.2,335.6,331.5,335.5"/>
			<path class="st19" d="M338.5,305.5c-3.4-0.7-6.7-1.7-9.8-3.1c-0.6-0.3-0.9,0.7-0.3,1c3.1,1.4,6.4,2.5,9.8,3.1
				C338.8,306.6,339.1,305.6,338.5,305.5"/>
			<path class="st19" d="M346.8,307.4c0-0.3-0.2-0.5-0.5-0.5c-1.4-0.2-2.8-0.4-4.2-0.7c-0.3,0-0.5,0.2-0.5,0.5
				c0,0.3,0.2,0.5,0.5,0.5c1.4,0.2,2.8,0.4,4.2,0.7C346.6,307.9,346.8,307.7,346.8,307.4"/>
			<path class="st20" d="M220.4,365.1L220.4,365.1c-0.8,1.8-2.5,3.1-4.3,3.7c-0.2,0.1-0.5,0.1-0.7,0.2c-0.6,0.3-1.2,0.5-1.8,0.7
				c-5.1,1.6-11,1.6-16.2,0.8c-21.1-3.2-36.4-19.6-46.4-37.4c-2.7-4.9-5.2-9.9-7.4-15c-2.4-5.5-4.8-11-6.4-16.8
				c-1-3.2-1.7-6.5-2.2-9.9c-1.4-5.6-1.6-11.7-1.3-17.6c0.2-4.1,0.6-8.2,1.6-12.2c1.7-7,5.4-13.4,10-18.9c1-1.1,2.1-2.3,3.5-2.6
				c0.1,0,0.1,0,0.2,0c1.4-0.2,3,0.7,3.1,2l0.3,0c0.1-0.4,0.2-0.8,0.3-1.2l0,0c-3.1,11.9-4,24.5-1.6,36.5
				c2.5,12.1,8.4,23.5,17.5,31.7c11.3,10.1,26.8,14.9,37.4,25.8C213.9,343,218.4,353.9,220.4,365.1"/>
			<path class="st20" d="M267.3,307.6c1.1,6.4-0.6,12.9-2.5,18.9c-0.4,1.2-2.1,0.8-2.3-0.3c-1-5.1-4.1-9.3-7.3-13.3
				c-3.1-3.8-6.4-7.4-10.3-10.3c-7.4-5.4-16.5-7.8-25.2-10.1c-5-1-10.1-1.9-15.1-3.1c-11.8-2.8-23.6-7.4-32.4-15.8
				c-8.3-7.8-13.6-19.2-12.4-30.4c0-0.2,0.1-0.5,0.1-0.7l0.2,0c0.3-1.9,3-3.1,4.9-2.3c2.1,0.8,3.4,2.9,4.4,5
				c2.6,5.3,4.2,11.1,7.5,16c6.3,9.4,17.7,14,28.9,16.1c11.1,2,22.6,2.1,33.6,4.9c10.8,2.7,21.5,8.9,25.9,19c0,0-0.1,0-0.1,0
				C266.1,303.2,266.9,305.4,267.3,307.6"/>
			<path class="st15" d="M260.6,315.9c1.9,3.5,3,7.6,3.2,11.6c0.2,3.2-0.2,6.5-1.1,9.6c-1.5,5.2-4.1,9.9-6.9,14.5
				c-2.3,3.7-4.7,7.4-8.1,10.2c-3.7,3-8.4,4.7-13.1,5.2c-4.7,0.5-9.5-0.1-14.1-1.4c0-0.2-0.1-0.4-0.1-0.5
				c-2-11.1-6.5-22.1-14.3-30.2c-10.6-10.9-26.1-15.7-37.4-25.8c-9.1-8.2-15.1-19.7-17.5-31.7c-2.4-12-1.5-24.6,1.6-36.5l0,0
				c0.4-1.1,1.2-2,2.1-2.5c0,0,0,0,0,0c0.5-0.3,1.2-0.4,1.8-0.3c0.9,0,1.9,0.4,2.4,1.2c0.8,1.1,0.7,2.7,0.6,4.1l0,0
				c-1.3,11.2,4.1,22.6,12.4,30.4c8.9,8.3,20.6,13,32.4,15.8c9.3,2.2,18.9,3.4,28,6.4c0.9,0.3,1.9,0.6,2.8,1c0.9,0.3,1.8,0.6,2.8,1
				c8.5,3.2,16.5,8.4,21.5,16.1C259.4,313.9,260.5,315.7,260.6,315.9"/>
			<path class="st5" d="M151,233.8c0.5,1,0.9,2.1,0.9,3.3c-1,0.3-2.1,0.5-3.1,0.6c-1.3,0.1-2.7,0-4-0.1c-3.7-0.3-7.4-1.4-10.5-3.4
				c-3.1-2-5.6-5.1-6.5-8.7c4.2-1,8.7-1.2,12.8,0.1C144.9,226.9,148.9,229.8,151,233.8"/>
			<path class="st7" d="M147.2,215.4c3.3,3.2,4.6,8.4,3,12.7l-0.1,0.1c-0.8-0.7-1.6-1.6-2.3-2.4c-0.6-0.8-1.2-1.6-1.6-2.5
				c-1-2.4-0.4-5.2,0.7-7.5L147.2,215.4z"/>
			<path class="st20" d="M169,304c-1.3-1.5-2.8-3-4.3-4.3c-0.2-0.2-0.6-0.1-0.7,0.1c-0.2,0.2-0.1,0.5,0.1,0.7
				c1.5,1.3,2.9,2.7,4.1,4.1C168.7,305.2,169.4,304.5,169,304"/>
			<path class="st20" d="M175.4,308.6c-0.3-0.1-0.6-0.3-0.8-0.4c0,0,0,0,0,0c0,0-0.1,0-0.1-0.1c-0.1,0-0.1-0.1-0.2-0.1
				c-0.1-0.1-0.3-0.2-0.4-0.3c-0.5-0.4-1-0.7-1.5-1.2c-0.2-0.2-0.6-0.1-0.7,0.1c-0.2,0.2-0.1,0.5,0.1,0.7c1,0.9,2.1,1.6,3.4,2.2
				c0.2,0.1,0.6,0,0.7-0.3C175.8,309,175.7,308.7,175.4,308.6"/>
			<path class="st20" d="M174.5,304.5l-4.2-3.6c-0.2-0.2-0.6-0.1-0.7,0.1c-0.2,0.2-0.1,0.5,0.1,0.7l4.2,3.6c0.2,0.2,0.6,0.1,0.7-0.1
				C174.8,305,174.7,304.7,174.5,304.5"/>
			<path class="st20" d="M193.4,289.5c-1.2-0.7-2.4-1.4-3.6-2.1c-0.2-0.1-0.5-0.1-0.7,0.1c-0.1,0.2-0.1,0.6,0.1,0.7
				c1.2,0.7,2.4,1.4,3.6,2.1c0.2,0.1,0.5,0.1,0.7-0.1C193.6,290,193.6,289.6,193.4,289.5"/>
			<path class="st20" d="M201.8,292c-1.3-0.4-2.7-0.8-4-1.1c-0.3-0.1-0.6,0-0.7,0.3c-0.1,0.2,0,0.6,0.3,0.7c1.3,0.4,2.7,0.8,4,1.1
				c0.3,0.1,0.6,0,0.7-0.3C202.2,292.5,202,292.1,201.8,292"/>
			<path class="st20" d="M199.4,294.6c-1.3-0.6-2.6-1-4-1.3c-0.3-0.1-0.5,0.2-0.6,0.4c0,0.3,0.2,0.5,0.4,0.6
				c1.3,0.3,2.5,0.7,3.7,1.2c0.3,0.1,0.6,0,0.7-0.3C199.8,295,199.6,294.7,199.4,294.6"/>
			<path class="st20" d="M221.9,348.6c-0.1-0.2-0.5-0.2-0.7-0.1c-0.2,0.2-0.2,0.5-0.1,0.7c0.9,1.5,1.6,3.1,2.1,4.8
				c0.1,0.3,0.3,0.5,0.6,0.4c0.2,0,0.5-0.3,0.4-0.6C223.7,352,223,350.3,221.9,348.6"/>
			<path class="st20" d="M228.2,352.1c-0.5-1.5-1.3-3-2.3-4.3c-0.4-0.5-1.2,0.1-0.8,0.6c0.9,1.2,1.6,2.6,2.1,4
				c0.1,0.3,0.4,0.4,0.7,0.3C228.2,352.6,228.2,352.3,228.2,352.1"/>
			<path class="st20" d="M232.3,346.3c-0.2-0.2-0.5-0.2-0.7-0.1c-0.2,0.2-0.2,0.5-0.1,0.7c0.7,1,1.2,2.2,1.5,3.4
				c0.1,0.3,0.3,0.5,0.6,0.4c0.3,0,0.5-0.3,0.4-0.6C233.7,348.8,233.1,347.5,232.3,346.3"/>
			<path class="st20" d="M237.6,344.9c-0.2-0.2-0.5-0.3-0.7-0.1c-0.2,0.2-0.3,0.5-0.1,0.7c0.3,0.4,0.6,0.8,0.8,1.3
				c0.1,0.4,0.2,1,0.2,1.4c0,0.3,0.2,0.5,0.4,0.6c0.3,0,0.6-0.2,0.6-0.4C238.8,347.1,238.4,345.9,237.6,344.9"/>
			<path class="st20" d="M228.2,358.5l-1-3c-0.1-0.3-0.4-0.4-0.7-0.3c-0.3,0.1-0.4,0.4-0.3,0.7l1,3c0.1,0.3,0.4,0.4,0.7,0.3
				C228.2,359.1,228.3,358.8,228.2,358.5"/>
			<path class="st20" d="M232.1,353.8c-0.2-0.2-0.5-0.3-0.7-0.1c-0.2,0.2-0.2,0.5-0.1,0.7c0.6,0.8,1,1.8,1.1,2.7
				c0,0.3,0.3,0.5,0.6,0.4c0.3-0.1,0.5-0.3,0.4-0.6C233.2,355.8,232.8,354.7,232.1,353.8"/>
			<path class="st20" d="M237.6,352c-0.1-0.2-0.4-0.4-0.7-0.3c-0.2,0.1-0.4,0.4-0.3,0.7c0.2,0.4,0.4,0.8,0.5,1.2c0,0,0,0.1,0,0.1
				c0,0.1,0,0.1,0,0.2c0,0.1,0,0.2,0.1,0.3c0,0.2,0.1,0.4,0.1,0.7c0,0.3,0.3,0.5,0.6,0.4c0.3-0.1,0.5-0.3,0.4-0.6
				C238.3,353.7,238,352.8,237.6,352"/>
			<path class="st20" d="M236.3,358.5c-0.2-0.2-0.5-0.3-0.7-0.1c-0.2,0.2-0.2,0.5-0.1,0.7c0,0,0.1,0.1,0.1,0.1c0,0,0,0.1,0.1,0.1
				c0.1,0.1,0.1,0.2,0.1,0.3c0,0.1,0.1,0.2,0.1,0.3c0,0,0,0,0,0.1c0,0,0,0.1,0,0.1c0,0.2,0.1,0.4,0.1,0.6c0,0,0,0.1,0,0.1
				c0,0,0,0.1,0,0.1c0,0.1,0,0.2,0,0.3c0,0.3,0.2,0.5,0.4,0.6c0.3,0,0.5-0.2,0.6-0.4C237.1,360.4,236.9,359.3,236.3,358.5"/>
			<path class="st15" d="M195.8,342.1c-7.8-7.1-17-12.4-25.4-18.6c-4.2-3-8.2-6.3-11.7-10.1c-3.6-3.9-6.6-8.3-8.9-13
				c-4.3-8.8-6.7-18.6-7.1-28.4c-0.4-9.3,1.2-18.8,5.4-27.1c0.5-1,1.1-2,1.7-3c0.3-0.6-0.5-1.2-0.8-0.6c-4.8,8-7.2,17.2-7.4,26.5
				c-0.2,9.6,1.7,19.2,5.1,28.1c2,5,4.5,9.8,7.7,14.1c3.1,4.1,6.8,7.6,10.8,10.8c8.2,6.6,17.5,11.8,25.7,18.4
				c8,6.4,15.3,14.6,17.8,24.8c0.3,1.2,0.5,2.4,0.7,3.7c0.1,0.6,1.1,0.5,1-0.1C209.2,357.5,203.1,348.8,195.8,342.1"/>
			<path class="st15" d="M258.5,305.6c-3-3.5-6.5-6.6-10.2-9.3c-3.7-2.6-7.7-4.8-11.9-6.4c-4.4-1.7-8.9-2.8-13.6-3.7
				c-9.3-1.7-18.9-2.1-28-4.8c-4.3-1.2-8.4-3-12.1-5.4c-3.6-2.3-6.8-5.1-9.6-8.3c-5.5-6.3-9.1-14.2-10-22.6c-0.1-1-0.2-2.1-0.2-3.1
				c0-0.7-1-0.5-1,0.1c0.1,8.3,3.1,16.5,8,23.2c4.9,6.8,11.8,12.2,19.6,15.3c8.8,3.5,18.3,4.3,27.6,5.6c4.7,0.7,9.4,1.5,14,2.8
				c4.5,1.3,8.8,3.2,12.8,5.5c3.9,2.3,7.6,5.1,10.9,8.4c3.4,3.3,6.6,7.2,8,11.8c0.4,1.2,0.6,2.4,0.7,3.6c0,0.7,1.1,0.5,1-0.1
				C264.1,313.5,261.6,309.2,258.5,305.6"/>
			<path class="st20" d="M240,327.5c-5.9-9.3-15.7-15.2-25.6-19.5c-10.4-4.5-21.3-7.4-31.5-12.3c-5-2.5-9.9-5.4-14-9.2
				c-3.9-3.5-7.1-7.8-9.4-12.5c-4.8-9.4-6.4-20.3-4.2-30.6c0.3-1.3,0.6-2.5,1-3.7c0.2-0.6-0.7-1-0.9-0.4c-3.1,10-2.6,20.9,1.2,30.6
				c1.8,4.8,4.5,9.4,7.8,13.3c3.5,4.2,7.8,7.6,12.4,10.3c9.7,5.8,20.7,9,31.2,13c10.2,3.9,20.5,8.7,27.9,17
				c7.5,8.5,10.8,20.3,9.1,31.5c-0.2,1.4-0.5,2.7-0.9,4.1c-0.2,0.6,0.8,1,0.9,0.4C247.9,348.8,246,336.9,240,327.5"/>
			<path class="st7" d="M151.5,235.8c-2.4-0.9-4.7-1.9-7.1-2.9c-0.1-0.2-0.2-0.4-0.2-0.5c-0.9-1.9-1.7-3.7-2.6-5.6
				c-0.3-0.6-1.2-0.2-0.9,0.4c0.5,1,1,2.1,1.5,3.1c0.2,0.5,0.5,1,0.7,1.5c0.1,0.2,0.2,0.3,0.2,0.5c-1.6-0.7-3.2-1.4-4.7-2.1
				c0,0,0,0,0-0.1c-0.7-1.6-1.5-3.1-2.4-4.6c-0.1-0.2-0.4-0.4-0.7-0.3c-0.2,0.1-0.4,0.4-0.3,0.7c0.5,0.8,0.9,1.6,1.3,2.4
				c0.2,0.4,0.4,0.8,0.6,1.2c-2.9-1.4-5.7-2.8-8.5-4.3c-0.6-0.3-0.9,0.6-0.4,0.9c3,1.6,6,3.1,9.1,4.6c-0.1,0-0.1,0.1-0.2,0.1
				c-0.2,0.1-0.5,0.3-0.8,0.4c-0.5,0.3-1.1,0.5-1.7,0.8c-0.6,0.2-0.2,1.2,0.4,0.9c0.8-0.3,1.6-0.7,2.3-1.1c0.3-0.2,0.7-0.4,1-0.6
				c1.5,0.7,3.1,1.4,4.6,2.1c-0.3,0.1-0.6,0.2-0.9,0.3c-0.6,0.2-1.2,0.4-1.9,0.6c-0.3,0.1-0.4,0.4-0.3,0.7c0.1,0.3,0.4,0.3,0.7,0.3
				c0.9-0.3,1.9-0.6,2.8-1c0.3-0.1,0.6-0.2,0.9-0.4c2.3,1,4.7,1.9,7,2.8C151.8,237,152.1,236,151.5,235.8"/>
			<path class="st7" d="M160.5,218.8c-0.2,0.8-0.7,1.6-1.1,2.3c-0.4,0.8-0.8,1.6-1.1,2.4c-0.7,1.6-1.4,3.3-2,4.9
				c-1.2,3.4-2.1,6.9-2.7,10.4c-0.1,0.4-0.4,0.5-0.7,0.4c-0.2,0-0.4-0.1-0.5-0.4c-0.7-4-0.9-8-0.5-12.1c0.2-1.8,0.4-3.5,0.8-5.2
				c0.2-0.9,0.4-1.7,0.6-2.6c0.2-0.8,0.4-1.7,0.8-2.5c0.7-1.4,2.9-0.6,4.1-0.2C159.4,216.5,161,217.1,160.5,218.8"/>
			<path class="st7" d="M173.8,219.4c-0.7-1.4-2-2.5-3.6-2.8c-1.6-0.3-3.3,0.5-3.7,2.2c-0.1,0.6,0.9,0.8,1,0.1
				c0.2-1,1.3-1.5,2.2-1.4c0.9,0.1,1.8,0.6,2.4,1.3c1.2,1.3,1.4,3.4,0.3,4.9c-1.1,1.5-3.2,1.8-4.9,2.2c-1.7,0.4-3.5,0.9-4.7,2.2
				c-0.3,0.4-0.6,0.8-0.8,1.3c-0.3-0.1-0.5-0.2-0.8-0.2c-2.1-0.3-3.8,1.1-4.6,2.9c-0.7,1.5-1.3,3.7,0.3,4.9c0.5,0.4,1.1-0.4,0.6-0.8
				c-1.3-0.9-0.2-3.4,0.5-4.4c0.9-1.3,2.3-1.9,3.7-1.4c-0.2,0.6-0.3,1.3-0.2,1.9c0.1,1.3,0.7,3.6,2.4,3.3c1.6-0.3,1.5-2.6,1-3.7
				c-0.4-0.9-1.1-1.6-1.9-2.1c0.5-1.1,1.4-1.9,2.6-2.4c1.6-0.6,3.3-0.7,4.9-1.3c1.4-0.5,2.6-1.3,3.3-2.6
				C174.4,222.3,174.4,220.7,173.8,219.4 M163.9,232.4c0.2,0.5,0.5,1.7,0,2.1c-0.7,0.6-1.3-1.1-1.4-1.6c-0.1-0.7-0.1-1.4,0.1-2.1
				C163.1,231.2,163.6,231.8,163.9,232.4"/>
			<path class="st7" d="M188.5,244c-0.6-0.3-1,0.7-0.4,0.9c0.7,0.3,0.8,1.3,0.4,1.9c-0.5,0.7-1.4,1-2.2,0.9
				c-1.7-0.2-3.2-1.5-4.1-2.9c-0.8-1.3-1.4-2.9-2.4-4.1c-0.9-1.1-2.1-1.8-3.5-2.1c-0.7-0.1-1.5-0.1-2.3,0c-0.3-0.7-0.8-1.4-1.4-1.9
				c-2.6-2.3-6.6-1.2-8.3,1.6c-0.3,0.6,0.5,1.2,0.8,0.6c1.4-2.3,4.5-3.3,6.7-1.6c0.5,0.4,0.9,0.9,1.2,1.5c-0.3,0.1-0.6,0.3-0.8,0.5
				c-0.9,0.7-1.2,2.4,0.1,2.9c1.4,0.6,2.1-1.1,2.1-2.2c0-0.2,0-0.3-0.1-0.5c1.2-0.2,2.6,0,3.6,0.7c1.2,0.8,1.8,2,2.5,3.2
				c0.6,1.2,1.2,2.3,2.1,3.3c1,1,2.3,1.7,3.6,1.9c1.4,0.1,2.9-0.4,3.4-1.7C190.1,245.8,189.6,244.5,188.5,244 M173.4,240.9
				c-0.1,0.2-0.2,0.6-0.5,0.6c-0.2,0-0.3-0.3-0.3-0.5c0-0.5,0.5-0.8,0.9-1C173.5,240.2,173.5,240.6,173.4,240.9"/>
			<path class="st13" d="M278.1,258.5c-1.9,4.9-4.1,9.6-6.4,14.3c-0.2,0.5-1,0.2-0.8-0.3c0.1-0.2,0.2-0.5,0.3-0.7
				c-0.3,0-0.5-0.1-0.5-0.4c0.4-1.8,0.7-3.7,0.9-5.6c0.8-6.7,0.3-13.5-1.2-20.1c-0.1-0.3,0.2-0.5,0.5-0.5c2.8,0.1,5.5,0.5,8.1,1.4
				c0.9,0.3,1.9,0.6,2.2,1.5c0.4,1-0.2,2.1-0.5,3C280,253.6,279,256.1,278.1,258.5"/>
			<path class="st21" d="M303.9,302.3c-2.3,4.3-5.2,8.3-8.5,11.9c-3.3,3.7-7,7.1-10.8,10.3c-1.9,1.6-3.9,3.1-5.9,4.7
				c-1.9,1.4-3.8,2.9-5.7,4.2c-1.7,1.2-3.6,2.2-5.7,2.7c-2.3,0.5-4.6,0-6.6-1.1c-4-2.2-6.2-6.2-8.1-10.1c-0.5,0.6-1.1,1.2-1.7,1.7
				c-3.3,2.5-7.8,2.8-11.6,1.3c-4.4-1.8-7.6-5.5-9.6-9.7c-1.7-3.6-2.7-7.6-3.4-11.6c-0.1-0.8-0.3-1.5-0.4-2.3c-0.8-4.9-1-9.9-1-14.8
				c0.1-4.9,0.4-9.9,1.3-14.8c0.9-4.7,2.5-9.4,5.6-13.2c5.2-6.5,14.2-9,22.2-7.1c8.3,2,15,8.5,18.3,16.2c0.6-0.5,1.3-1,1.9-1.5
				c4.9-3.2,10.8-4.6,16.5-3.8c2.5,0.4,4.9,1.2,7.2,2.4c3.6,2,6.7,5.1,8.6,8.8c2,3.9,2.6,8.4,2,12.8
				C307.8,293.8,306.1,298.2,303.9,302.3"/>
			<path class="st22" d="M303.9,302.3c-2.3,4.3-5.2,8.3-8.5,11.9c-3.3,3.7-7,7.1-10.8,10.3c-1.9,1.6-3.9,3.1-5.9,4.7
				c-1.9,1.4-3.8,2.9-5.7,4.2c-1.7,1.2-3.6,2.2-5.7,2.7c-2.3,0.5-4.6,0-6.6-1.1c-4-2.2-6.2-6.2-8.1-10.1c-0.5,0.6-1.1,1.2-1.7,1.7
				c-3.3,2.5-7.8,2.8-11.6,1.3c-4.4-1.8-7.6-5.5-9.6-9.7c-1.7-3.6-2.7-7.6-3.4-11.6c0.3,0.1,0.6,0.1,0.9,0.2
				c2.7,0.4,5.4,0.7,8.1,0.8c11,0.4,22.1-1.8,32-6.6c9.5-4.6,18.5-12.1,22-22.4c1.5-4.2,2-8.8,1.4-13.3c2.5,0.4,4.9,1.2,7.2,2.4
				c3.6,2,6.7,5.1,8.6,8.8c2,3.9,2.6,8.4,2,12.8C307.8,293.8,306.1,298.2,303.9,302.3"/>
			<path class="st23" d="M234.4,273.6c0.4-2.7,2-5,3.9-6.9c2.1-2.3,4.7-4.1,7.4-5.2c0.9-0.4,1.8-0.7,2.8-0.9c3-0.6,6-0.1,8.6,1.5
				c2.4,1.5,4.2,4,4.3,6.8c0.2,3.7-2.1,7-4.6,9.5c-2.7,2.7-5.8,5.1-9.2,6.9c-1.5,0.8-3.3,1.5-5,1.5c-1.6,0.1-3.2-0.4-4.5-1.3
				c-2.8-1.9-4.2-5.2-4.1-8.6C233.9,275.9,234.1,274.8,234.4,273.6"/>
			<path class="st17" d="M281.4,256.8c-1,0.9-2,2-2.4,3.3c1,0.8,2.1,1.4,3.2,2c1.4,0.7,2.9,1.2,4.4,1.7c4.3,1.2,8.8,1.7,13.2,0.8
				c4.3-0.9,8.5-3.2,11.1-6.8c-4.2-3-9.1-5.1-14.3-5.6C291.2,251.7,285.5,253.2,281.4,256.8"/>
			<path class="st7" d="M293.6,238c-5.1,2-8.7,7.3-8.9,12.8l0.1,0.2c1.3-0.5,2.5-1,3.6-1.7c1-0.6,2-1.3,2.8-2.1
				c2.1-2.2,2.7-5.6,2.5-8.7L293.6,238z"/>
			<path class="st7" d="M279.9,258.7c3,0,6.1,0,9.1-0.1c0.2-0.2,0.3-0.3,0.5-0.5c1.8-1.7,3.6-3.4,5.4-5c0.6-0.5,1.4,0.3,0.9,0.9
				c-1,0.9-2,1.9-3,2.8c-0.5,0.4-0.9,0.9-1.4,1.3c-0.2,0.2-0.3,0.3-0.5,0.5c2.1-0.1,4.1-0.2,6.2-0.3c0,0,0,0,0.1-0.1
				c1.5-1.4,3.1-2.8,4.7-4.1c0.3-0.2,0.6-0.2,0.9,0c0.2,0.2,0.3,0.7,0,0.9c-0.9,0.7-1.7,1.4-2.5,2.1c-0.4,0.3-0.8,0.7-1.1,1
				c3.8-0.3,7.6-0.6,11.4-1c0.8-0.1,0.8,1.1,0,1.2c-4,0.5-8.1,0.8-12.1,1.1c0.1,0.1,0.1,0.2,0.2,0.2c0.2,0.3,0.4,0.5,0.7,0.8
				c0.5,0.6,1,1.1,1.5,1.6c0.6,0.5-0.3,1.4-0.9,0.9c-0.7-0.7-1.5-1.5-2.1-2.3c-0.3-0.4-0.6-0.7-0.8-1.1c-2,0.1-4,0.2-6.1,0.3
				c0.3,0.3,0.6,0.5,0.9,0.8c0.6,0.5,1.2,1,1.8,1.5c0.3,0.2,0.2,0.6,0,0.9c-0.3,0.3-0.6,0.2-0.9,0c-0.9-0.7-1.8-1.5-2.7-2.3
				c-0.2-0.2-0.6-0.5-0.8-0.8c-3,0.1-6,0.1-9.1,0.1C279.1,259.9,279.1,258.7,279.9,258.7"/>
			<path class="st24" d="M248.5,319.1c-0.7,7.2-3.6,14.1-7.9,20c-9,3.6-18.9,4.5-28.5,3.1c-5-2.2-9.2-6.4-12.3-11
				c-5.1-7.6-8-17.2-5.8-26.1c1.2-5,4-9.5,6.5-14c3.3-5.8,6.4-11.9,7.5-18.5c1-6.1,0.2-12.8-3.4-17.8c-0.9-2.1-1.6-4.3-1.9-6.5
				c2.8,2.3,5.5,4.6,8.3,6.9c-0.5,2.9,0,5.9,1,8.6c1.2,3.2,3.1,6,5.2,8.6c3,3.8,6.4,7.4,10.1,10.5c5.1,4.3,10.8,7.9,14.8,13.1
				C247.1,302.5,249.3,311,248.5,319.1"/>
			<path class="st25" d="M212.1,342.2c-1.8-0.3-3.5-0.6-5.2-1c-8.5-2-16.7-5.9-22.7-12.1c-6-6.3-9.7-15.1-8.6-23.8
				c1.3-10,8.4-18.2,16.1-24.6c3.6-3,7.6-6,9.3-10.4c1.7-4.4,0.6-9.4-2.1-13.3c-1.4-2-3.1-3.8-5.1-5.1c3.9-0.7,8.1,0.5,10.9,3.3
				c-0.1-0.1-0.1-0.2-0.2-0.3c3.6,5,4.5,11.7,3.4,17.8c-1.1,6.6-4.2,12.7-7.5,18.5c-2.6,4.5-5.3,9-6.5,14
				c-2.2,8.9,0.7,18.5,5.8,26.1C202.9,335.8,207.1,340,212.1,342.2"/>
			<path class="st25" d="M267.2,310.1c-3.3,12.1-12.4,22.2-23.7,27.7c-1,0.5-1.9,0.9-2.9,1.3c4.3-5.9,7.2-12.8,7.9-20
				c0.8-8.1-1.3-16.6-6.4-23c-4.1-5.2-9.8-8.8-14.8-13.1c-3.7-3.2-7.1-6.7-10.1-10.5c-2.1-2.6-4-5.5-5.2-8.6c-1-2.7-1.5-5.7-1-8.6
				c0,0,0.1,0.1,0.1,0.1c2.7-2.8,5.4-5.6,8.1-8.4c-3.8,4.6-3.7,12,0.3,16.5c2.8,3.2,7,4.8,11.1,6.2c7.8,2.6,15.8,5,22.9,9.3
				c7,4.3,13.1,10.9,14.6,19C268.7,301.9,268.3,306.1,267.2,310.1"/>
			<path class="st26" d="M188.3,298.5c1.5-3.1,3.5-5.9,5.8-8.5c4.5-5.1,9.8-9.7,12.7-15.9c2.4-5.2,2.7-11.9-1.1-16.6
				c-0.4-0.5-0.9-1-1.5-1.5c-0.4-0.3-1,0.3-0.6,0.6c4.8,4,5,11.1,2.7,16.4c-2.7,6.4-8.1,11-12.7,16.1c-2.3,2.6-4.4,5.3-5.9,8.4
				c-1.4,2.9-2.4,6.1-2.9,9.3c-0.9,6.3,0.2,12.9,3.2,18.5c2.8,5.3,7.2,9.8,12.5,12.6c0.6,0.4,1.3,0.7,2,1c0.5,0.2,0.9-0.5,0.4-0.7
				c-5.5-2.5-10.2-6.7-13.4-11.9c-3.3-5.5-4.7-12-4-18.4C186,304.7,186.9,301.5,188.3,298.5"/>
			<path class="st26" d="M258.3,293.9c-1.3-3-3.2-5.7-5.6-7.9c-2.5-2.3-5.5-3.9-8.7-5c-6.6-2.3-13.9-2.7-20.2-5.7
				c-3.2-1.5-5.9-3.7-7.9-6.6c-2-2.9-3.3-6.3-3.6-9.7c-0.1-0.9-0.1-1.7-0.1-2.6c0-0.5-0.8-0.5-0.8,0c-0.3,6.8,3,13.6,8.5,17.6
				c5.7,4.1,12.9,4.9,19.5,6.6c3.3,0.8,6.7,1.9,9.6,3.7c2.8,1.7,5.1,4.1,6.9,6.9c3.6,5.7,4.8,12.8,3.9,19.5
				c-1.1,7.6-4.6,14.5-9.1,20.7c-0.6,0.8-1.2,1.6-1.8,2.3c-0.3,0.4,0.3,1,0.6,0.6c4.7-6,8.7-12.8,10.4-20.3
				C261.5,307.2,261.1,300.2,258.3,293.9"/>
			<path class="st26" d="M217.5,340.7c-4.5-3.3-7.6-8.3-9.2-13.6c-1.9-6.2-2-12.7-1.2-19c0.8-7,2.5-13.8,3.8-20.7
				c1.2-6.5,2-13.1,1.2-19.6c-0.7-5.6-2.5-11.3-5.9-15.8c-0.4-0.6-0.9-1.1-1.4-1.6c-0.4-0.4-0.9,0.2-0.6,0.6
				c3.9,4.4,6,10.1,6.9,15.8c1,6.5,0.3,13.2-0.9,19.7c-1.2,6.9-2.9,13.6-3.8,20.6c-0.8,6.4-0.9,13,0.8,19.3
				c1.5,5.3,4.2,10.3,8.4,13.9c0.5,0.4,1.1,0.9,1.6,1.3C217.5,341.7,217.9,341,217.5,340.7"/>
			<path class="st26" d="M235.8,313c-0.8-4.8-2.5-9.4-4.8-13.7c-2.4-4.3-5.3-8.4-8.1-12.4c-3.2-4.5-6.3-9.1-8.5-14.2
				c-0.2-0.5-0.9-0.1-0.7,0.4c3.9,8.9,10.5,16.2,15.4,24.5c2.5,4.2,4.5,8.6,5.5,13.3c1,4.7,1.2,9.6,0.6,14.4
				c-0.7,5.4-2.5,10.6-5.3,15.3c-0.3,0.5,0.4,0.9,0.7,0.4C235.6,332.7,237.4,322.6,235.8,313"/>
			<path class="st26" d="M238.7,310.1c-1.5-6.8-4.5-13.3-8.6-18.9c-1.2-1.6-2.4-3.1-3.7-4.5c-0.4-0.4-1,0.2-0.6,0.6
				c4.7,5,8.3,11,10.5,17.5c0.6,1.8,1.2,3.7,1.6,5.5C238.1,310.9,238.9,310.7,238.7,310.1"/>
			<path class="st26" d="M239.2,316.4c0.1,5.1-0.9,10.1-2.7,14.8c-0.2,0.5,0.6,0.7,0.8,0.2c1.9-4.8,2.8-9.9,2.7-15
				C240,315.9,239.2,315.9,239.2,316.4"/>
			<path class="st26" d="M212.3,290.6c-1.7,6.3-2.6,12.7-2.8,19.2c0,0.5,0.8,0.5,0.8,0c0.2-6.4,1.2-12.8,2.8-19
				C213.2,290.3,212.4,290.1,212.3,290.6"/>
			<path class="st26" d="M212.7,329.6c-1.7-5.1-2.3-10.4-2-15.7c0-0.5-0.8-0.5-0.8,0c-0.4,5.4,0.3,10.8,2,15.9
				C212.1,330.3,212.9,330.1,212.7,329.6"/>
			<path class="st26" d="M191,323.9c-2.6-5.8-3.2-12.4-1.9-18.6c0.1-0.5-0.7-0.7-0.8-0.2c-1.4,6.5-0.7,13.2,2,19.3
				C190.5,324.8,191.2,324.4,191,323.9"/>
			<path class="st26" d="M196.6,290c-2.6,2.4-4.8,5.3-6.4,8.5c-0.2,0.5,0.5,0.9,0.7,0.4c1.6-3.1,3.7-5.9,6.3-8.3
				C197.6,290.2,197,289.6,196.6,290"/>
			<path class="st26" d="M183.2,298.2c0.2-0.5-0.5-0.9-0.7-0.4c-2.7,5.6-3.5,12-2.3,18.1c0.3,1.8,0.9,3.5,1.5,5.1
				c0.2,0.5,1,0.3,0.8-0.2c-2.3-5.6-2.6-11.9-1.1-17.7C181.9,301.3,182.5,299.7,183.2,298.2"/>
			<path class="st26" d="M193.4,283.9c-3.5,1.9-6.5,4.7-8.6,8.1c-0.3,0.5,0.4,0.9,0.7,0.4c2.1-3.2,4.9-5.9,8.3-7.8
				C194.3,284.4,193.9,283.6,193.4,283.9"/>
			<path class="st26" d="M251,279.4c-2.2-1.3-4.5-2.3-7-3c-0.5-0.1-0.7,0.7-0.2,0.8c8.6,2.3,15.6,8.9,18.5,17.4
				c0.8,2.5,1.3,5,1.4,7.6c0,0.5,0.9,0.5,0.8,0C264.1,292.9,259,284.2,251,279.4"/>
			<path class="st26" d="M264,307.5c-0.4,2.8-1.2,5.6-2.4,8.2c-0.2,0.5,0.5,0.9,0.7,0.4c1.3-2.7,2.1-5.6,2.5-8.6
				C264.9,307,264.1,307,264,307.5"/>
			<path class="st26" d="M252.8,324.5c-0.7,1.3-1.4,2.5-2.1,3.8c-0.3,0.5,0.5,0.9,0.7,0.4c0.7-1.3,1.4-2.5,2.1-3.8
				C253.8,324.4,253.1,324,252.8,324.5"/>
			<path class="st26" d="M255.8,317.8c-0.2-0.1-0.4,0.1-0.5,0.3c-0.4,1.1-0.8,2.1-1.2,3.2c-0.1,0.2,0.1,0.5,0.3,0.5
				c0.2,0.1,0.4-0.1,0.5-0.3c0.4-1.1,0.8-2.1,1.2-3.2C256.2,318.1,256,317.9,255.8,317.8"/>
			<path class="st26" d="M243.5,284.3c-3.2-1.2-6.3-2.3-9.6-3.3c-0.5-0.2-0.7,0.7-0.2,0.8c3.2,1,6.4,2.1,9.6,3.3
				C243.8,285.3,244,284.5,243.5,284.3"/>
			<path class="st26" d="M252.4,290c-1.3-1.5-2.8-2.7-4.6-3.5c-0.5-0.2-0.9,0.5-0.4,0.7c1.7,0.8,3.2,2,4.4,3.4
				C252.1,291,252.7,290.4,252.4,290"/>
			<path class="st26" d="M227.5,270.8c-2.5-0.9-4.9-2.3-7-3.9c-0.4-0.3-1,0.3-0.6,0.6c2.2,1.8,4.7,3.2,7.4,4.2
				C227.8,271.8,228,270.9,227.5,270.8"/>
			<polygon class="st27" points="140.9,317 140.9,424.4 165.6,424.4 153.9,317 			"/>
			<polygon class="st27" points="250.1,316 235.5,424.4 272.4,424.4 264.8,316.1 			"/>
			<polygon class="st27" points="346.1,316 362.8,316 356.9,424.4 328,424.4 			"/>
			<polygon class="st28" points="133.2,314 136.1,333.7 366.7,335.4 366.7,306.5 			"/>
			<polygon class="st28" points="133.2,361.8 133.2,383.5 366.7,387.1 368.1,355.7 			"/>
			<polygon class="st28" points="133.2,398.4 134.9,426.8 361.1,430.6 362.8,398.4 			"/>
			<path class="st27" d="M337.6,316.6c-23.2-7.1-47.6-2.9-71.2-0.3c-12.3,1.3-24.5,1.8-36.9,1.4c-12.1-0.4-24.2-1.2-36.3-1.5
				c-13.6-0.3-27.3,0.1-40.7,2.7c-1.3,0.3-0.8,2.3,0.6,2c23.9-4.6,48.3-2.1,72.4-1.2c12.1,0.5,24.1,0.4,36.1-0.8
				c12.1-1.2,24.1-3,36.2-3.8c13.2-0.8,26.6-0.4,39.3,3.5C338.3,319,338.9,317,337.6,316.6"/>
			<path class="st27" d="M341.4,323.4c-14-2-28-4-42.1-4.4c-3.6-0.1-7.2-0.1-10.7,0.1c-2.8,0.1-6.3-0.1-8.7,1.5
				c-1.8,1.2-2.8,3.9-1.4,5.8c1.6,2.1,5,1.7,7.3,1.8c3.4,0.1,6.9,0.2,10.3,0.4c1,0.1,2.3,0.2,3.1,0.9c1.1,1-0.1,1.9-1,2.2
				c-1.2,0.4-2.4,0.3-3.5,0.3c-1.9-0.1-3.8-0.1-5.7-0.2c-3.4-0.1-6.9-0.2-10.3-0.4c-14.3-0.5-28.5-1-42.8-1.5
				c-15.4-0.5-30.8-1.1-46.3-1.6c0.7-1.1,1.4-2.1,2.3-3.1c0.6-0.7,0.2-1.7-0.7-1.8c-10-0.4-20.1,0.2-30,1.7c-1.3,0.2-0.8,2.2,0.6,2
				c9-1.3,18.2-1.8,27.3-1.6c-0.8,1-1.5,2.1-2,3.3c-0.4,0.7,0.1,1.5,0.9,1.6c28.4,1,56.8,2,85.1,3c7,0.3,14.1,0.5,21.1,0.7
				c2.1,0.1,4.7,0.2,6.5-1.3c1.5-1.3,1.4-3.6-0.1-4.8c-2-1.6-5.1-1.3-7.4-1.4c-3.4-0.1-6.8-0.2-10.1-0.4c-1.1-0.1-2.9-0.2-3-1.7
				c-0.1-1.7,1.8-2.6,3.2-2.8c3.3-0.6,6.8-0.5,10.1-0.5c16-0.1,31.9,2.1,47.7,4.4C342.1,325.6,342.7,323.6,341.4,323.4"/>
			<path class="st27" d="M312.8,363.3c-21.1-6.7-42.4,2.6-63.2,5.5c-21.3,3-42.7-0.7-64-1.8c-11.8-0.6-23.6-0.4-35.2,2
				c-1.3,0.3-0.8,2.3,0.6,2c20.8-4.3,42.1-1.3,63,0.2c10.4,0.7,20.9,1.2,31.4,0.1c10.7-1.1,21.1-3.9,31.6-6.1
				c11.6-2.4,23.9-3.7,35.4,0C313.5,365.7,314.1,363.7,312.8,363.3"/>
			<path class="st27" d="M337.3,370.7c-16.6-0.6-33.2-1.3-49.7-1.8c-6.1-0.2-13-0.1-18.2,3.6c-2.2,1.6-4.9,4.4-3.4,7.3
				c1.2,2.3,4.2,2.6,6.5,2.5c4.4-0.3,8.9-1.1,13.3-1.7c4.8-0.6,9.6-1.2,14.4-1.8c1.3-0.2,1.3-2.3,0-2.1l-22.7,2.9
				c-2.6,0.3-6.2,1.4-8.7,0.2c-3.6-1.7,1.3-5.4,3-6.4c5.2-2.8,11.6-2.5,17.3-2.3c7.6,0.3,15.1,0.5,22.7,0.8
				c8.4,0.3,16.9,0.6,25.3,0.9C338.6,372.8,338.6,370.8,337.3,370.7"/>
			<path class="st27" d="M337.2,378.3c-8.1-1.1-16.3-1.9-24.4-2.3c-1.3-0.1-1.3,2,0,2.1c8,0.4,16,1.1,23.9,2.3
				C338,380.5,338.5,378.5,337.2,378.3"/>
			<path class="st27" d="M241,377.3c-20.9,5.3-42.1-2.4-63.1-2.8c-5.9-0.1-11.8,0.4-17.5,1.9c-1.3,0.3-0.7,2.3,0.6,2
				c20.9-5.3,42.1,2.5,63.1,2.8c5.9,0.1,11.8-0.4,17.5-1.9C242.9,379,242.3,377,241,377.3"/>
			<path class="st27" d="M341.4,414.7c-2.4-2.6-6.4-2.2-9.6-2.2c-4.2,0-8.5,0.1-12.7,0.1l-25.5,0.3l-12.5,0.1c-1.9,0-4.2,0.4-6-0.5
				c-1.7-0.8-2.1-2.8-0.3-3.7c1.8-0.8,4.2-0.7,6.1-0.9c2.4-0.2,4.8-0.4,7.2-0.5c4.6-0.3,9.3-0.4,13.9-0.5c9.5-0.1,18.9,0.2,28.4,1
				c1.3,0.1,1.3-2,0-2.1c-16.6-1.4-33.4-1.4-50,0c-2.6,0.2-6.5,0-8.3,2.5c-1.9,2.6,0.4,5.6,3,6.4c1.6,0.5,3.3,0.4,4.9,0.3l6.8-0.1
				l12.5-0.1c8.3-0.1,16.6-0.2,24.9-0.3c3.9,0,8-0.4,12,0c1.7,0.2,3.7,0.8,4.3,2.6c0.6,1.7-0.6,2.8-2.2,3.1
				c-1.7,0.4-3.5,0.3-5.3,0.3l-6.2,0.2l-12.7,0.5c-8.4,0.3-16.8,0.6-25.2,0.9l-28.1,1c-4.3,0.2-8.6,0.5-12.9,0.4
				c-3-0.1-6.2-0.5-8.7-2.1c4-1.5,8-3.1,12-4.6c1.8-0.7,4.3-1.2,5.7-2.6c1.1-1.2,1-2.9-0.1-4c-1.3-1.3-3.3-1.8-5-2.3
				c-2-0.5-4-0.9-6.1-1c-4.2-0.3-8.4,0-12.6,0.6c-8.8,1.3-17.5,3.8-26.5,4c-9.5,0.1-18.6-2.9-27.6-5.3c-9.6-2.5-20.1-4.2-29.7-0.6
				c-1.2,0.5-0.7,2.5,0.6,2c16.5-6.2,33.4,3.4,49.7,5.5c8.3,1.1,16.4-0.3,24.5-1.9c7.8-1.5,16-3.3,24-2c2.1,0.3,4.5,0.8,6.3,1.7
				c0.4,0.2,0.9,0.5,1.1,0.9c0.3,0.6-0.2,1-0.7,1.3c-1,0.6-2.3,0.9-3.4,1.4c-4.9,1.9-9.7,3.7-14.6,5.6c-0.7,0.3-1.1,1.2-0.5,1.7
				c5,4.7,12.5,3.8,18.8,3.6l25.5-0.9c16.8-0.6,33.6-1.2,50.4-1.8c2-0.1,3.9-0.1,5.9-0.2c1.4-0.1,2.9-0.3,4.1-1.1
				C343.4,419.8,343.2,416.6,341.4,414.7"/>
			<path class="st27" d="M222.9,420.2c-21.7-0.6-43.4-1.2-65.2-1.7c-1.3,0-1.3,2,0,2.1c21.7,0.6,43.4,1.2,65.2,1.7
				C224.2,422.3,224.2,420.3,222.9,420.2"/>
			<path class="st29" d="M148.2,323c0,2.2-1.8,4-4,4c-2.2,0-4-1.8-4-4c0-2.2,1.8-4,4-4C146.4,319,148.2,320.8,148.2,323"/>
			<path class="st29" d="M357.2,320.9c0,2.2-1.8,4-4,4c-2.2,0-4-1.8-4-4s1.8-4,4-4C355.4,316.9,357.2,318.7,357.2,320.9"/>
			<path class="st29" d="M146.2,372.5c0,2.2-1.8,4-4,4c-2.2,0-4-1.8-4-4s1.8-4,4-4C144.4,368.4,146.2,370.2,146.2,372.5"/>
			<path class="st29" d="M356.3,372.5c0,2.2-1.8,4-4,4c-2.2,0-4-1.8-4-4s1.8-4,4-4C354.5,368.4,356.3,370.2,356.3,372.5"/>
			<path class="st29" d="M146.2,412.2c0,2.2-1.8,4-4,4c-2.2,0-4-1.8-4-4s1.8-4,4-4C144.4,408.2,146.2,410,146.2,412.2"/>
			<path class="st29" d="M354.8,412.2c0,2.2-1.8,4-4,4c-2.2,0-4-1.8-4-4s1.8-4,4-4C353,408.2,354.8,410,354.8,412.2"/>
			<g>
				<g>
					<defs>
						<rect id="SVGID_3_" x="161" y="155.2" width="48.5" height="30.9"/>
					</defs>
					<clipPath id="SVGID_4_">
						<use xlink:href="#SVGID_3_"  style="overflow:visible;"/>
					</clipPath>
					<path class="st30" d="M209.5,155.2c-1.1,3.4-1.9,7-2.3,10.6v0c-0.2,0.1-0.4,0.3-0.6,0.4c-2.2,1.5-4.8,2.7-7.4,3.3
						c-1.3,0.3-2.6,0.5-3.9,0.6c-0.7,0-1.4,0-2,0c-0.7,0-1.5-0.2-2.2,0c-1.4,0.4-1.5,2.2-1.7,3.4c-0.3,1.7-0.6,3.3-1.1,5
						c-0.9,2.6-2.4,5.3-5,6.6c-0.1,0.1-0.3,0.1-0.4,0.2c-2.2,1-4.8,1-7.1,0c-2.4-1-4.2-3.1-5-5.6c-0.4-1.3-0.6-2.6-0.5-3.9
						c0.1-0.7,0.2-1.4,0.4-2c0.2-0.6,0.4-1.3,0.3-2c-0.1-0.4-0.4-0.7-0.8-0.8c-0.3-0.1-0.7-0.1-1.1-0.2c-0.8,0-1.6,0-2.5-0.1
						c-1.5,0-3.1-0.2-4.4-0.8c-0.4-0.2-0.8-0.4-1.1-0.7c5.4-3,11.2-5.2,17.1-6.4c0.2,1.1,0.5,2.3,0.7,3.4l0.8-0.2
						C189.5,162,199.4,158.4,209.5,155.2"/>
				</g>
			</g>
			<path class="st31" d="M179.8,145c3.2,3.6,8,5.5,12.8,5.8c0.7,0,1.3,0.1,2,0.1c4.1,0,8.3-0.9,12.2-2.1c1.3-0.4,2.7-0.9,3.9-1.6
				l0.3,0.5c-8.4,5.3-19.3,6.5-28.5,3c-0.1,0.8,0.3,1.6,0.4,2.5c0.1,0.8-0.1,1.9-0.9,2.1c-0.4,0.1-0.7,0-1.1-0.1
				c-1.2-0.4-2.2-0.9-3.3-1.6c-7.6-4.8-12.4-13.8-12.1-22.7v0c0.1,0,0.2-0.1,0.3-0.1c0.5-0.2,0.8-0.7,1-1.2c0.5-1.2,0.7-2.5,0.6-3.8
				c0.6,0.7,1.3,1.3,2.1,1.8l0,0.1c-1.8,7.8,2.3,16.6,9.5,20.3c0.3,0.2,0.8,0.3,1,0c0.1-0.2,0.1-0.4,0-0.5
				C180,146.5,179.9,145.8,179.8,145"/>
			<path class="st32" d="M182.6,117.1c-1.9,1.1-4.2,1.6-6.4,1.4c-1.9-0.2-3.8-0.8-5.3-2c1.7-0.5,3.3-1.7,4-3.4
				c0.7-1.5,0.8-3.4,1.8-4.7c0.6-0.8,1.4-1.3,2.4-1.5h0c2.4-0.4,4.7,0.9,6.4,2.6c1.8,1.6,2.9,3.8,3.6,6.1c-0.9-0.7-2.3-0.7-3.4-0.2
				C184.6,115.7,183.6,116.5,182.6,117.1"/>
			<path class="st33" d="M188.4,147.5c2-0.3,4-0.5,6-0.5c-3.9-2-7-5.7-8.2-10c1.4,0.1,2.7,0.9,3.9,1.6c2.4,1.4,4.9,2.8,7.3,4.2
				c-1.6-2.8-3.2-5.7-3.3-8.9c2.4,1.6,4.4,3.7,6,6.1c-0.1-0.8-0.1-1.7-0.2-2.5c0-0.3,0-0.7,0.2-1c0.4-0.6,1.3-0.3,1.9,0
				c1.7,0.8,3.3,1.8,4.8,3c0.6,1,1.2,2,1.8,3c0.9,1.4,2,2.7,3.2,3.9c-0.3,0.3-0.7,0.6-1.1,0.9c-1.2,0.8-2.5,1.2-3.9,1.6
				c-4,1.2-8.1,2.1-12.2,2.1l0-0.3c-2.2-0.1-4.4-0.6-6.4-1.6c-0.4-0.2-0.8-0.5-0.7-0.9C187.5,147.7,188,147.6,188.4,147.5"/>
			<path class="st34" d="M219.5,142.7c0.4,0.5,0,1.3-0.4,1.8c-1.1,1.4-2.5,2.5-4.1,3.2l-2.6-1.1c-0.5,0.3-1,0.7-1.5,1l-0.3-0.5
				c0.4-0.2,0.8-0.5,1.1-0.9c-1.2-1.2-2.2-2.5-3.2-3.9l0.4-0.2c-0.4-2-0.3-4,0.3-6c0.1-0.4,0.5-0.9,0.9-0.7c0.2,0.1,0.3,0.2,0.4,0.4
				c0.6,1.2,0.9,2.6,0.8,3.9c0.5-1.3,1.3-2.5,2.1-3.5c0.2-0.3,0.4-0.5,0.7-0.6c0.5-0.2,1.1,0.2,1.4,0.6c0.3,0.5,0.3,1,0.3,1.6
				c0,2-0.4,3.9-1,5.8c1.1-0.8,2.4-1.6,3.8-1.4C219,142.3,219.3,142.5,219.5,142.7"/>
			<path class="st34" d="M214.3,148.1c0.1,2.3-0.7,4.5-1.7,6.5c-2.2,4.5-5.6,8.5-9.9,11.1c-4.3,2.5-9.5,3.5-14.3,2.2
				c0.5-0.5,0.7-1.2,0.5-1.8c-0.2-0.5-0.6-0.8-1-1.1c-1.7-1.1-3.9-1.5-5.9-1.4c-2.4,0-6.5,0.5-10.2,1.4c-1.1,0.3-1.4,1.4-1,2.2
				c-9.3,1.2-19.1-1.8-25.8-8.4c-6.7-6.6-9.8-16.9-7.4-26c0.5-2,1.4-4,2.6-5.6c0,0,0,0,0,0.1c0.4,1.1,2,1,3.1,0.6
				c1.7-0.6,3.3-1.4,4.7-2.5c-0.3,1.1-0.7,2.2-0.5,3.4c0.2,1.1,1.3,2.2,2.4,2c0.6-0.1,1.1-0.5,1.6-0.9c1.2-1.1,2.2-2.3,3.1-3.7
				c0.3,1,0.7,2.1,1.2,3.1c0.2,0.5,0.5,1.1,1,1.4c0.9,0.6,2.2,0.1,2.8-0.8c0.6-0.9,0.8-2,0.9-3.1c0.7,0.9,1.4,1.8,2.1,2.7
				c0.7,0.9,1.7,1.8,2.7,1.6v0c-0.3,9,4.4,18,12.1,22.7c1,0.6,2.1,1.2,3.3,1.6c0.3,0.1,0.7,0.2,1.1,0.1c0.8-0.2,1.1-1.3,0.9-2.1
				c-0.1-0.8-0.5-1.6-0.4-2.5c9.3,3.5,20.2,2.3,28.5-3c0.5-0.3,1-0.6,1.5-1l2.6,1.1C214.8,147.9,214.6,148,214.3,148.1"/>
			<path class="st34" d="M180.1,147.3c0,0.2,0.1,0.4,0,0.5c-0.2,0.3-0.7,0.2-1,0c-7.2-3.7-11.3-12.4-9.5-20.3l0-0.1
				c0.2,0.1,0.4,0.2,0.6,0.3c0.8,0.4,1.7,0.6,2.4,0.1c0.7-0.5,0.8-1.6,0.5-2.5c-0.3-0.9-0.7-1.7-0.7-2.6c1.3,0.7,2.9,0.9,4.3,0.5
				c0.4-0.1,0.8-0.3,1.1-0.5c0.7-0.6,0.6-1.7,0.2-2.5c-0.1-0.2-0.2-0.3-0.4-0.5c5.3-2.7,12-2.2,16.9,1.2c4.2,3,6.8,7.7,9.1,12.3
				c1,2.1,2,4.2,3.1,6.2c-1.5-1.1-3.1-2.1-4.8-3c-0.6-0.3-1.5-0.5-1.9,0c-0.2,0.3-0.2,0.7-0.2,1c0.1,0.8,0.1,1.7,0.2,2.5
				c-1.6-2.4-3.7-4.4-6-6.1c0.1,3.2,1.7,6.1,3.3,8.9c-2.4-1.4-4.9-2.8-7.3-4.2c-1.2-0.7-2.5-1.4-3.9-1.6c1.2,4.3,4.2,8,8.2,10
				c-2,0-4,0.1-6,0.5c-0.4,0.1-0.9,0.2-1,0.6c-0.1,0.4,0.4,0.7,0.7,0.9c2,1,4.2,1.5,6.4,1.6l0,0.3c-0.6,0-1.3,0-2-0.1
				c-4.8-0.4-9.6-2.2-12.8-5.8C179.9,145.8,180,146.5,180.1,147.3"/>
			<path class="st35" d="M185.6,168.9c0.2,3.3,0.3,6.6,0.5,9.9c0.1,1.1,0,2.4-1.2,2.8c-0.8,0.3-1.7-0.2-2.2-0.8
				c-1.8-2.4-2.8-5.3-3-8.3c-1.1,2.6-2.5,5.1-4.3,7.3c-0.7,0.8-1.8,1.6-2.6,1.1c-0.5-0.3-0.6-1-0.7-1.6c-0.4-4,1-8.2,3.8-11.1
				c-0.7-0.1-2.2-0.2-3.8-0.3c-0.6,0-1-0.4-1.2-0.8c-0.4-0.8-0.1-1.9,1-2.2c3.7-0.9,7.8-1.4,10.2-1.4c2.1,0,4.2,0.3,5.9,1.4
				c0.4,0.3,0.8,0.6,1,1.1c0.2,0.6,0,1.3-0.5,1.8c-0.1,0.1-0.2,0.2-0.3,0.3c-0.7,0.5-1.5,0.6-2.3,0.8L185.6,168.9z"/>
			<path class="st33" d="M177.7,119.7c0.1,0.2,0.3,0.3,0.4,0.5c0.5,0.8,0.5,1.9-0.2,2.5c-0.3,0.3-0.7,0.4-1.1,0.5
				c-1.5,0.4-3,0.2-4.3-0.5c0,0.9,0.5,1.7,0.7,2.6c0.2,0.9,0.2,2-0.5,2.5c-0.7,0.5-1.6,0.3-2.4-0.1c-0.2-0.1-0.4-0.2-0.6-0.3
				c-0.8-0.5-1.5-1-2.1-1.8c0.1,1.3-0.1,2.6-0.6,3.8c-0.2,0.5-0.5,1-1,1.2c-0.1,0-0.2,0.1-0.3,0.1c-1,0.2-2-0.8-2.7-1.6
				c-0.7-0.9-1.4-1.8-2.1-2.7c-0.1,1.1-0.3,2.2-0.9,3.1c-0.6,0.9-1.9,1.4-2.8,0.8c-0.5-0.3-0.8-0.8-1-1.4c-0.5-1-0.8-2-1.2-3.1
				c-0.9,1.3-1.9,2.6-3.1,3.7c-0.5,0.4-1,0.8-1.6,0.9c-1.1,0.2-2.2-0.9-2.4-2c-0.2-1.1,0.1-2.3,0.5-3.4c-1.5,1-3.1,1.8-4.7,2.5
				c-1.1,0.4-2.7,0.5-3.1-0.6c0,0,0,0,0-0.1c-0.1-0.4-0.1-0.9,0.1-1.3c0.5-1.4,1.6-2.6,2.9-3.2l0.1,0c-1.2-5.6,0.5-11.7,4.3-16.1
				c1.1-1.3,2.3-2.4,3.7-3.3c3.5-2.4,7.7-3.7,12-3.6h0.1c5.9,0.1,11.6,2.9,15.5,7.2c-0.9,0.2-1.8,0.8-2.4,1.5
				c-1,1.4-1.1,3.2-1.8,4.7c-0.7,1.6-2.3,2.9-4,3.4c1.5,1.2,3.4,1.9,5.3,2C176.7,118.8,177.3,119.2,177.7,119.7"/>
			<path class="st36" d="M163.5,99.6c-4.2-0.1-8.5,1.2-12,3.6c-0.7-0.4-1.3-0.9-1.6-1.6c-0.1-0.2-0.2-0.4-0.2-0.7
				c0.1-0.3,0.4-0.5,0.6-0.6c0.8-0.4,1.7-0.7,2.5-1c-0.8-0.5-1.4-1.2-2-1.9c-0.2-0.2-0.4-0.5-0.3-0.8c0.1-0.5,0.8-0.7,1.3-0.7
				c1.9,0,3.8,0.5,5.4,1.3c0.1-0.5-0.2-1-0.4-1.5c-0.1-0.5,0-1.2,0.5-1.3c0.2-0.1,0.4,0,0.6,0c0.9,0.2,1.6,0.8,2.3,1.4
				C161.6,96.9,162.6,98.2,163.5,99.6"/>
			<path class="st14" d="M160.3,107.1c0,0.1,0,0.1,0,0.2c0,0.1,0,0.2,0,0.4c0,0.2,0.1,0.4,0.2,0.6c0.4,0.8,1.2,1.2,2.1,1.3
				c0.2,0,0.4,0,0.6-0.1c0.2,0,0.3-0.1,0.5-0.2c0,0,0.1,0,0.1-0.1c0.4-0.2,0.7-0.5,0.9-0.9c0.1-0.1,0.1-0.2,0.1-0.3
				c0-0.1,0.1-0.2,0.1-0.3c0.1-0.2,0.1-0.4,0.1-0.6c0-0.4-0.1-0.8-0.3-1.2c-0.1-0.2-0.2-0.3-0.3-0.5c0-0.1-0.1-0.1-0.1-0.1
				c-0.1-0.1-0.3-0.3-0.5-0.4c-0.1-0.1-0.3-0.1-0.5-0.2c0,0-0.1,0-0.1,0c-0.4-0.1-0.8-0.1-1.2,0c-0.4,0.1-0.7,0.3-1,0.5
				c-0.1,0.1-0.3,0.3-0.4,0.4c0,0-0.1,0.1-0.1,0.2C160.4,106.2,160.3,106.5,160.3,107.1C160.3,107,160.3,107,160.3,107.1"/>
			<path class="st32" d="M152.1,112.6c0,0.1,0,0.2,0,0.3c0,0.2,0,0.4,0,0.6c0,0.3,0.1,0.6,0.3,0.9c0.6,1.2,1.9,2,3.3,2
				c0.3,0,0.7,0,1-0.1c0.3-0.1,0.5-0.2,0.7-0.3c0.1,0,0.1-0.1,0.2-0.1c0.6-0.3,1.1-0.8,1.4-1.4c0.1-0.1,0.1-0.3,0.2-0.5
				c0.1-0.1,0.1-0.3,0.2-0.4c0.1-0.3,0.1-0.6,0.2-1c0-0.7-0.1-1.3-0.4-1.9c-0.1-0.3-0.4-0.6-0.5-0.8c-0.1-0.1-0.1-0.2-0.2-0.2
				c-0.2-0.2-0.5-0.4-0.7-0.6c-0.2-0.1-0.5-0.2-0.7-0.3c0,0-0.1,0-0.1-0.1c-0.6-0.2-1.3-0.2-1.9,0c-0.6,0.1-1.1,0.5-1.6,0.9
				c-0.2,0.2-0.4,0.5-0.6,0.7c-0.1,0.1-0.1,0.2-0.1,0.2c-0.3,0.6-0.5,1.1-0.5,1.8C152.1,112.5,152.1,112.5,152.1,112.6"/>
			<path class="st37" d="M189.3,114.4c-2.7-1.6-6-1.3-9-0.8c-3.1,0.5-6.8,1.1-9.4-1.2c-0.5-0.5-1.3,0.3-0.8,0.8
				c2.4,2.1,5.6,2.1,8.6,1.7c3.3-0.5,6.9-1.4,9.9,0.4C189.4,115.8,190,114.8,189.3,114.4"/>
			<path class="st31" d="M175.2,134.9c-0.6-1-1.1-2-1.4-3c-0.1-0.3-0.4-0.5-0.7-0.4c-0.3,0.1-0.5,0.4-0.4,0.7
				c0.4,1.1,0.9,2.2,1.6,3.3c0.2,0.2,0.5,0.4,0.8,0.2C175.2,135.5,175.3,135.2,175.2,134.9"/>
			<path class="st31" d="M179,132.7l-1.4-2.5c-0.1-0.3-0.5-0.4-0.8-0.2c-0.3,0.2-0.4,0.5-0.2,0.8l1.4,2.5c0.1,0.3,0.5,0.4,0.8,0.2
				C179.1,133.3,179.2,133,179,132.7"/>
			<path class="st31" d="M183.2,129.4c-0.5-0.7-0.9-1.5-1.4-2.2c-0.1-0.2-0.5-0.4-0.8-0.2c-0.3,0.2-0.4,0.5-0.2,0.8
				c0.5,0.7,0.9,1.5,1.4,2.2c0.1,0.2,0.5,0.4,0.8,0.2C183.3,129.9,183.4,129.6,183.2,129.4"/>
			<path class="st31" d="M180.6,138.6c-0.4-0.4-0.8-0.7-1.1-1.2c-0.1-0.1-0.2-0.2-0.3-0.3c0-0.1-0.1-0.1-0.1-0.2c0,0,0,0-0.1-0.1
				c0,0,0,0,0,0c-0.2-0.2-0.3-0.4-0.5-0.7c-0.2-0.2-0.5-0.4-0.8-0.2c-0.2,0.2-0.4,0.5-0.2,0.8c0.6,1,1.4,1.8,2.2,2.6
				c0.2,0.2,0.6,0.2,0.8,0C180.8,139.2,180.8,138.8,180.6,138.6"/>
			<path class="st31" d="M183.5,135.7c-0.1-0.2-0.3-0.3-0.4-0.5c0,0-0.1-0.1-0.1-0.1c0,0,0,0,0,0c0,0,0,0,0,0c0,0,0,0,0,0
				c0,0,0,0,0,0c0,0,0,0-0.1-0.1c-0.1-0.1-0.1-0.2-0.2-0.3c-0.2-0.4-0.5-0.7-0.7-1.1c-0.1-0.3-0.5-0.4-0.8-0.2
				c-0.3,0.2-0.3,0.5-0.2,0.8c0.4,0.8,1,1.6,1.6,2.3c0.2,0.2,0.6,0.2,0.8,0C183.7,136.2,183.7,135.9,183.5,135.7"/>
			<path class="st31" d="M183,135.1C183.1,135.1,183,135.1,183,135.1C183,135.1,183,135.1,183,135.1C183,135.1,183,135.1,183,135.1"
				/>
			<path class="st31" d="M195.9,128.9c-0.5-0.7-1.1-1.4-1.6-2.1c-0.1-0.1-0.3-0.2-0.4-0.2c-0.1,0-0.3,0.1-0.4,0.2
				c-0.1,0.1-0.2,0.2-0.2,0.4c0,0.2,0.1,0.3,0.2,0.4l1.6,2.1c0.1,0.1,0.3,0.2,0.4,0.2c0.1,0,0.3-0.1,0.4-0.2
				c0.1-0.1,0.2-0.2,0.2-0.4C196,129.2,196,129.1,195.9,128.9"/>
			<path class="st31" d="M198.9,127.1c0-0.1-0.1-0.2-0.1-0.2c-0.3-0.4-0.7-0.9-1-1.3c-0.1-0.1-0.3-0.2-0.4-0.2
				c-0.1,0-0.3,0.1-0.4,0.2c-0.1,0.1-0.2,0.2-0.2,0.4c0,0,0,0.1,0,0.1c0,0.1,0.1,0.2,0.1,0.2c0.3,0.4,0.7,0.9,1,1.3
				c0.1,0.1,0.3,0.2,0.4,0.2c0.1,0,0.3-0.1,0.4-0.2c0.1-0.1,0.2-0.2,0.2-0.4C198.9,127.2,198.9,127.2,198.9,127.1"/>
			<path class="st31" d="M200,131.8c-0.4-0.6-0.8-1.2-1.1-1.8c-0.2-0.2-0.5-0.4-0.8-0.2c-0.2,0.2-0.4,0.5-0.2,0.8
				c0.4,0.6,0.8,1.2,1.1,1.8c0.2,0.2,0.5,0.4,0.8,0.2C200.1,132.4,200.2,132.1,200,131.8"/>
			<path class="st31" d="M141.4,133.2c-0.3-0.1-0.6,0.1-0.7,0.4c-0.2,1.3-0.4,2.7-0.6,4c0,0.3,0.1,0.6,0.4,0.7
				c0.3,0.1,0.6-0.1,0.7-0.4c0.2-1.3,0.4-2.7,0.6-4C141.9,133.6,141.8,133.3,141.4,133.2"/>
			<path class="st31" d="M145.8,134.3c-0.3,0-0.6,0.2-0.6,0.6c0,1.1,0,2.3-0.1,3.4c0,0.3,0.3,0.6,0.6,0.6c0.3,0,0.6-0.2,0.6-0.6
				l0.1-3.4C146.3,134.6,146.1,134.3,145.8,134.3"/>
			<path class="st31" d="M150.7,134.8c-0.3,0-0.5,0.2-0.6,0.6c0,0.9-0.1,1.8-0.1,2.7c0,0.3,0.3,0.6,0.6,0.6c0.3,0,0.5-0.2,0.6-0.6
				c0-0.9,0.1-1.8,0.1-2.7C151.2,135.1,151,134.8,150.7,134.8"/>
			<path class="st31" d="M143.6,141.3c0-0.3-0.2-0.6-0.6-0.6c-0.3,0-0.6,0.2-0.6,0.6c0.1,1,0.3,2,0.4,3c0,0.3,0.2,0.6,0.6,0.6
				c0.3,0,0.6-0.2,0.6-0.6L143.6,141.3z"/>
			<path class="st31" d="M148.7,141.6c0-0.3-0.2-0.6-0.6-0.6c-0.3,0-0.6,0.2-0.6,0.6c0.1,0.9,0.1,1.9,0.2,2.8c0,0.3,0.2,0.6,0.6,0.6
				c0.3,0,0.6-0.2,0.6-0.6C148.8,143.4,148.7,142.5,148.7,141.6"/>
			<path class="st31" d="M147.8,150.6c-0.2-0.3-0.3-0.5-0.4-0.8c0-0.1-0.1-0.1-0.1-0.2c0-0.1,0-0.1,0,0c0,0,0-0.1,0-0.1
				c-0.1-0.1-0.1-0.3-0.1-0.4c-0.1-0.3-0.2-0.5-0.2-0.8c0-0.1-0.1-0.3-0.1-0.4c0-0.1,0-0.2,0-0.2c0,0,0,0,0,0c0,0,0-0.1,0-0.1
				c0-0.3-0.2-0.6-0.6-0.6c-0.3,0-0.6,0.2-0.6,0.6c0.1,1.3,0.6,2.5,1.2,3.7c0.2,0.2,0.5,0.4,0.8,0.2
				C147.8,151.2,147.9,150.8,147.8,150.6"/>
			<path class="st31" d="M196.9,163.8c-1.5,0.1-2.9,0.3-4.4,0.4c-0.3,0-0.6,0.2-0.6,0.6c0,0.3,0.3,0.6,0.6,0.6
				c1.5-0.1,2.9-0.3,4.4-0.4c0.3,0,0.6-0.2,0.6-0.6C197.5,164.1,197.2,163.8,196.9,163.8"/>
			<path class="st31" d="M203.5,161.5c-0.2-0.2-0.5-0.4-0.8-0.2c-0.4,0.2-0.7,0.5-1.1,0.7c-0.1,0-0.1,0-0.2,0.1c0,0,0,0-0.1,0
				c-0.1,0-0.2,0.1-0.3,0.1c-0.2,0.1-0.4,0.1-0.6,0.2c-0.3,0.1-0.5,0.4-0.4,0.7c0.1,0.3,0.4,0.5,0.7,0.4c0.9-0.2,1.8-0.6,2.5-1.2
				C203.5,162.1,203.7,161.8,203.5,161.5"/>
			<path class="st31" d="M201.1,160.6c-0.1-0.3-0.4-0.5-0.7-0.4c-1.3,0.5-2.7,0.8-4.1,0.9c-0.3,0-0.6,0.2-0.6,0.6
				c0,0.3,0.3,0.6,0.6,0.6c1.5-0.1,3-0.4,4.4-0.9C201,161.2,201.2,160.9,201.1,160.6"/>
			<path class="st38" d="M164.7,124.9l-0.8-2.6c-0.1-0.3-0.4-0.5-0.7-0.4c-0.3,0.1-0.5,0.4-0.4,0.7l0.8,2.6c0.1,0.3,0.4,0.5,0.7,0.4
				C164.6,125.5,164.8,125.2,164.7,124.9"/>
			<path class="st38" d="M167.2,123.5c-0.4-0.8-0.7-1.6-1.1-2.4c-0.1-0.3-0.5-0.3-0.8-0.2c-0.3,0.2-0.3,0.5-0.2,0.8
				c0.4,0.8,0.7,1.6,1.1,2.4c0.1,0.3,0.5,0.3,0.8,0.2C167.3,124.1,167.4,123.8,167.2,123.5"/>
			<path class="st38" d="M170,121.6c-0.3-0.5-0.6-0.9-0.9-1.4c-0.1-0.1-0.2-0.2-0.3-0.3c-0.1,0-0.3,0-0.4,0.1
				c-0.3,0.2-0.4,0.5-0.2,0.8c0.3,0.5,0.6,0.9,0.9,1.4c0.1,0.1,0.2,0.2,0.3,0.3c0.1,0,0.3,0,0.4-0.1
				C170,122.2,170.1,121.9,170,121.6"/>
			<path class="st38" d="M167.3,118.9c-0.3-0.6-0.6-1.2-0.9-1.8c-0.1-0.3-0.5-0.4-0.8-0.2c-0.3,0.2-0.3,0.5-0.2,0.8
				c0.3,0.6,0.6,1.2,0.9,1.8c0.1,0.3,0.5,0.4,0.8,0.2C167.4,119.5,167.5,119.2,167.3,118.9"/>
			<path class="st38" d="M164.8,120.1c-0.2-0.5-0.3-1-0.5-1.5c0-0.1-0.1-0.3-0.3-0.3c-0.1-0.1-0.3-0.1-0.4-0.1
				c-0.3,0.1-0.5,0.4-0.4,0.7c0.2,0.5,0.3,1,0.5,1.5c0,0.1,0.1,0.3,0.3,0.3c0.1,0.1,0.3,0.1,0.4,0.1
				C164.7,120.7,164.9,120.4,164.8,120.1"/>
			<path class="st38" d="M146.6,118.8c0-0.1,0-0.2-0.1-0.3c0-0.1,0-0.1,0-0.2c0,0,0,0,0-0.1c0-0.2,0-0.4,0-0.6c0-0.2,0-0.4,0-0.6
				c0-0.1,0-0.2,0-0.3c0,0,0,0,0,0c0,0,0,0,0,0c0-0.1,0-0.1,0-0.2c0.1-0.3-0.1-0.6-0.4-0.7c-0.3-0.1-0.6,0.1-0.7,0.4
				c-0.2,1-0.2,2,0.1,3c0.1,0.3,0.4,0.5,0.7,0.4C146.5,119.4,146.7,119.1,146.6,118.8"/>
			<path class="st38" d="M147,111.8c-0.3-0.1-0.6,0.1-0.7,0.4c-0.2,0.6-0.3,1.3-0.5,1.9c-0.1,0.3,0.1,0.6,0.4,0.7
				c0.3,0.1,0.6-0.1,0.7-0.4c0.2-0.6,0.3-1.3,0.5-1.9C147.5,112.2,147.3,111.8,147,111.8"/>
			<path class="st38" d="M149,113.8c-0.3-0.1-0.6,0.1-0.7,0.4l-0.5,2c-0.1,0.3,0.1,0.6,0.4,0.7c0.3,0.1,0.6-0.1,0.7-0.4l0.5-2
				C149.5,114.2,149.3,113.8,149,113.8"/>
			<path class="st39" d="M177.2,176.2c-1.1-1.3-2.7-2.1-4.3-2.3c-0.3,0-0.6,0.3-0.6,0.6c0,0.3,0.3,0.5,0.6,0.6c0,0,0.1,0,0,0
				c0.1,0,0.1,0,0.2,0c0.1,0,0.2,0,0.3,0.1c0.2,0,0.3,0.1,0.5,0.1c0.4,0.1,0.6,0.2,1,0.4c0.6,0.4,1.2,0.8,1.6,1.3
				c0.2,0.2,0.6,0.2,0.8,0C177.5,176.8,177.4,176.4,177.2,176.2"/>
			<path class="st39" d="M178.9,173.6c-1.1-1.7-2.8-3.1-4.8-3.7c-0.3-0.1-0.6,0.1-0.7,0.4c-0.1,0.3,0.1,0.6,0.4,0.7
				c1.7,0.6,3.2,1.7,4.1,3.2c0.2,0.3,0.5,0.4,0.8,0.2C179,174.2,179.1,173.9,178.9,173.6"/>
			<path class="st39" d="M185.7,170.9c-2.1-4-6.4-6.6-10.9-6.7c-0.7,0-0.7,1.1,0,1.1c4.1,0.1,8,2.5,9.9,6.1
				C185.1,172.1,186,171.5,185.7,170.9"/>
			<path class="st39" d="M187.5,166.9c-0.3-1.3-1-2.6-2-3.6c-0.2-0.2-0.6-0.2-0.8,0c-0.2,0.2-0.2,0.6,0,0.8c0.1,0.1,0.2,0.2,0.3,0.4
				c0,0.1,0.1,0.1,0.1,0.2c0,0,0,0,0,0c0,0,0,0,0,0c0,0,0,0.1,0.1,0.1c0.2,0.3,0.4,0.5,0.5,0.8c0.1,0.1,0.1,0.3,0.2,0.4
				c0,0.1,0.1,0.1,0.1,0.2c0,0,0,0,0,0c0,0,0,0,0,0c0,0,0,0.1,0,0.1c0.1,0.3,0.2,0.6,0.3,0.9c0.1,0.3,0.4,0.5,0.7,0.4
				C187.4,167.5,187.6,167.2,187.5,166.9"/>
			<path class="st39" d="M185.6,175.4c-1.8-0.4-3.6-0.3-5.3,0.3c-0.3,0.1-0.5,0.4-0.4,0.7c0.1,0.3,0.4,0.5,0.7,0.4
				c1.5-0.6,3.1-0.7,4.7-0.3C186,176.6,186.3,175.6,185.6,175.4"/>
			<path class="st39" d="M185.9,178.3c-1.4,0-2.7,0.4-3.9,1c-0.3,0.1-0.3,0.5-0.2,0.8c0.2,0.3,0.5,0.3,0.8,0.2
				c1-0.6,2.2-0.9,3.3-0.9c0.3,0,0.6-0.3,0.6-0.6C186.5,178.5,186.2,178.3,185.9,178.3"/>
		</g>
	</g>
</g>
</svg>
